# Blender 5.0.0
# www.blender.org
mtllib Radio.mtl
o Radio.001
v 0.000000 -0.161221 0.495320
v 0.000000 0.959301 0.495320
v 0.000000 0.892174 0.566858
v 0.000000 -0.094094 0.566858
v 1.628569 0.892174 0.566858
v 1.628569 -0.228584 0.566858
v 0.502214 0.959301 0.495319
v 0.502214 -0.295711 0.495319
v 0.502214 0.892174 0.566858
v 0.502214 -0.228584 0.566858
v 0.411495 0.959301 0.495319
v 0.411495 0.892174 0.566858
v 0.411495 -0.161221 0.495319
v 0.411495 -0.094094 0.566858
v 1.371076 -0.499159 0.379084
v 1.249322 -0.531783 0.379084
v 1.160191 -0.620913 0.379084
v 1.127567 -0.742667 0.379084
v 1.160191 -0.864421 0.379084
v 1.249322 -0.953552 0.379084
v 1.371076 -0.986176 0.379084
v 1.492830 -0.953552 0.379084
v 1.581960 -0.864421 0.379084
v 1.614584 -0.742667 0.379083
v 1.581960 -0.620913 0.379084
v 1.492830 -0.531783 0.379084
v 0.000000 -0.244622 0.442379
v 0.000000 -0.382150 0.442379
v 0.429509 -0.382150 0.442379
v 0.429509 -0.346951 0.442379
v 0.343315 -0.244622 0.442379
v 0.343315 -0.382150 0.442379
v 1.371076 -0.533947 0.681869
v 1.371076 -0.499159 0.648266
v 1.371076 -0.509349 0.672027
v 1.266716 -0.561911 0.681869
v 1.249322 -0.531783 0.648266
v 1.254416 -0.540607 0.672027
v 1.190319 -0.638307 0.681869
v 1.160192 -0.620913 0.648266
v 1.169016 -0.626008 0.672027
v 1.162356 -0.742667 0.681869
v 1.127568 -0.742667 0.648266
v 1.137757 -0.742667 0.672027
v 1.190319 -0.847027 0.681869
v 1.160192 -0.864421 0.648266
v 1.169016 -0.859327 0.672027
v 1.266716 -0.923424 0.681869
v 1.249322 -0.953552 0.648266
v 1.254416 -0.944728 0.672027
v 1.371076 -0.951387 0.681869
v 1.371076 -0.986176 0.648266
v 1.371076 -0.975986 0.672027
v 1.475436 -0.923424 0.681869
v 1.492830 -0.953552 0.648266
v 1.487735 -0.944728 0.672027
v 1.551832 -0.847027 0.681869
v 1.581960 -0.864421 0.648266
v 1.573136 -0.859327 0.672027
v 1.579796 -0.742667 0.681869
v 1.614584 -0.742667 0.648266
v 1.604395 -0.742667 0.672027
v 1.551832 -0.638307 0.681869
v 1.581960 -0.620913 0.648266
v 1.573136 -0.626008 0.672027
v 1.475436 -0.561911 0.681869
v 1.492830 -0.531783 0.648266
v 1.487735 -0.540607 0.672027
v 1.851782 0.353106 -0.205641
v 1.873258 0.353106 -0.227116
v 1.873258 0.331630 -0.205641
v 1.854651 0.353106 -0.216364
v 1.854651 0.342382 -0.205641
v 1.857438 0.342836 -0.215911
v 1.873258 0.342382 -0.224247
v 1.862534 0.353106 -0.224247
v 1.862988 0.342836 -0.221460
v 1.862534 0.334499 -0.205641
v 1.873258 0.334499 -0.216364
v 1.862988 0.337286 -0.215911
v 1.851782 1.587376 -0.205641
v 1.840382 1.567882 -0.227116
v 1.850255 1.584764 -0.216378
v 1.846082 1.577629 -0.224239
v 1.851782 0.353106 0.205640
v 1.873258 0.331630 0.205639
v 1.873258 0.353106 0.227115
v 1.854652 0.342382 0.205640
v 1.854652 0.353106 0.216363
v 1.857438 0.342836 0.215909
v 1.873258 0.334499 0.216363
v 1.862534 0.334499 0.205640
v 1.862988 0.337286 0.215909
v 1.862534 0.353106 0.224246
v 1.873258 0.342382 0.224246
v 1.862988 0.342836 0.221459
v 1.840382 1.567882 0.227115
v 1.851782 1.587376 0.205640
v 1.846082 1.577629 0.224238
v 1.850255 1.584764 0.216377
v 1.966908 1.464411 0.205639
v 1.948353 1.452628 0.227115
v 1.964422 1.462833 0.216377
v 1.957630 1.458519 0.224238
v 1.948353 1.452628 -0.227116
v 1.966907 1.464411 -0.205641
v 1.957630 1.458519 -0.224239
v 1.964421 1.462833 -0.216379
v 1.948240 0.353106 -0.227116
v 1.966907 0.353106 -0.205641
v 1.945432 0.331630 -0.205641
v 1.957356 0.353106 -0.223965
v 1.947343 0.342565 -0.223930
v 1.956569 0.342892 -0.221564
v 1.963721 0.342565 -0.205641
v 1.964110 0.353106 -0.216229
v 1.961684 0.342901 -0.215890
v 1.946329 0.334816 -0.216181
v 1.955972 0.334816 -0.205641
v 1.956145 0.337202 -0.215849
v 1.945432 0.331630 0.205639
v 1.966908 0.353106 0.205639
v 1.948241 0.353106 0.227115
v 1.955642 0.334499 0.205639
v 1.946321 0.334499 0.216363
v 1.956072 0.337286 0.215909
v 1.964927 0.353106 0.216363
v 1.963525 0.342382 0.205639
v 1.961621 0.342836 0.215909
v 1.947352 0.342382 0.224246
v 1.958075 0.353106 0.224246
v 1.956797 0.342836 0.221459
v -0.000000 1.587376 -0.205640
v -0.000000 1.567806 -0.227116
v -0.000000 1.584754 -0.216378
v -0.000000 1.577591 -0.224239
v 0.000000 1.567806 0.227116
v 0.000000 1.587376 0.205640
v 0.000000 1.577591 0.224239
v 0.000000 1.584754 0.216378
v 0.000000 1.464411 0.205640
v 0.000000 1.485887 0.227116
v 0.000000 1.467289 0.216378
v 0.000000 1.475149 0.224239
v -0.000000 1.485887 -0.227116
v -0.000000 1.464411 -0.205640
v -0.000000 1.475149 -0.224239
v -0.000000 1.467289 -0.216378
v 1.851782 1.391296 0.205640
v 1.873258 1.388074 0.227115
v 1.854660 1.390865 0.216377
v 1.862520 1.389685 0.224238
v 1.780019 1.485887 0.227115
v 1.779871 1.464411 0.205640
v 1.779945 1.475149 0.224238
v 1.779890 1.467288 0.216377
v 1.842148 1.427854 0.205640
v 1.858195 1.444993 0.227115
v 1.844298 1.430150 0.216377
v 1.850171 1.436424 0.224238
v 1.815827 1.454616 0.205640
v 1.831855 1.471735 0.227115
v 1.817974 1.456909 0.216377
v 1.823841 1.463176 0.224238
v 1.779870 1.464411 -0.205641
v 1.780018 1.485887 -0.227116
v 1.779890 1.467288 -0.216378
v 1.779944 1.475149 -0.224239
v 1.873258 1.388074 -0.227116
v 1.851782 1.391296 -0.205641
v 1.862520 1.389685 -0.224239
v 1.854659 1.390865 -0.216378
v 1.831855 1.471735 -0.227116
v 1.815826 1.454616 -0.205641
v 1.823840 1.463176 -0.224239
v 1.817974 1.456909 -0.216378
v 1.858194 1.444993 -0.227116
v 1.842148 1.427854 -0.205641
v 1.850171 1.436424 -0.224239
v 1.844298 1.430150 -0.216378
v 1.966907 1.514261 -0.205641
v 1.948699 1.494813 -0.227116
v 1.964468 1.511656 -0.216379
v 1.957803 1.504537 -0.224239
v 1.876964 1.568116 -0.227116
v 1.894996 1.587376 -0.205641
v 1.885980 1.577746 -0.224239
v 1.892580 1.584796 -0.216378
v 1.957273 1.550819 -0.205641
v 1.939340 1.531664 -0.227116
v 1.954870 1.548252 -0.216379
v 1.948306 1.541241 -0.224239
v 1.930951 1.577581 -0.205641
v 1.913069 1.558481 -0.227116
v 1.928556 1.575022 -0.216379
v 1.922010 1.568031 -0.224239
v 1.894996 1.587376 0.205639
v 1.876964 1.568116 0.227115
v 1.892580 1.584796 0.216377
v 1.885980 1.577746 0.224238
v 1.948699 1.494813 0.227115
v 1.966908 1.514261 0.205639
v 1.957803 1.504537 0.224238
v 1.964468 1.511656 0.216377
v 1.913069 1.558481 0.227115
v 1.930952 1.577581 0.205639
v 1.922011 1.568031 0.224238
v 1.928556 1.575022 0.216377
v 1.939340 1.531664 0.227115
v 1.957273 1.550819 0.205639
v 1.948307 1.541241 0.224238
v 1.954871 1.548252 0.216377
v -0.000000 1.106095 -0.502342
v -0.000000 1.062192 -0.546245
v -0.000000 1.100213 -0.524294
v -0.000000 1.084144 -0.540363
v -0.000000 -1.062394 -0.546245
v -0.000000 -1.106297 -0.502342
v -0.000000 -1.084346 -0.540363
v -0.000000 -1.100416 -0.524294
v 0.000000 -1.106297 0.502342
v 0.000000 -1.062394 0.546245
v 0.000000 -1.100416 0.524294
v 0.000000 -1.084346 0.540363
v 0.000000 1.062192 0.546245
v 0.000000 1.106095 0.502342
v 0.000000 1.084144 0.540363
v 0.000000 1.100213 0.524294
v 1.834416 1.006169 -0.491996
v 1.834416 1.051845 -0.446320
v 1.834416 1.029008 -0.485877
v 1.834416 1.045726 -0.469158
v 1.780166 1.062023 -0.546246
v 1.780166 1.106095 -0.502173
v 1.780166 1.084059 -0.540341
v 1.780166 1.100191 -0.524210
v 1.827148 1.078970 -0.473824
v 1.827148 1.033674 -0.519121
v 1.827148 1.072902 -0.496473
v 1.827148 1.056322 -0.513052
v 1.807291 1.098827 -0.494413
v 1.807291 1.054263 -0.538978
v 1.807291 1.092857 -0.516696
v 1.807291 1.076545 -0.533007
v 1.780166 -1.106297 -0.502173
v 1.780166 -1.062225 -0.546246
v 1.780166 -1.100393 -0.524210
v 1.780166 -1.084261 -0.540341
v 1.834416 -1.052047 -0.446320
v 1.834416 -1.006371 -0.491996
v 1.834416 -1.045928 -0.469158
v 1.834416 -1.029209 -0.485877
v 1.807291 -1.054465 -0.538978
v 1.807291 -1.099029 -0.494413
v 1.807291 -1.076747 -0.533007
v 1.807291 -1.093059 -0.516695
v 1.827148 -1.033876 -0.519121
v 1.827148 -1.079172 -0.473824
v 1.827148 -1.056524 -0.513052
v 1.827148 -1.073104 -0.496473
v 1.834416 -1.006371 0.491995
v 1.834416 -1.052047 0.446319
v 1.834416 -1.029209 0.485875
v 1.834416 -1.045928 0.469157
v 1.780166 -1.062225 0.546245
v 1.780166 -1.106297 0.502172
v 1.780166 -1.084261 0.540340
v 1.780166 -1.100393 0.524208
v 1.827148 -1.079172 0.473823
v 1.827148 -1.033876 0.519120
v 1.827148 -1.073104 0.496471
v 1.827148 -1.056524 0.513051
v 1.807291 -1.099029 0.494412
v 1.807291 -1.054465 0.538977
v 1.807291 -1.093059 0.516694
v 1.807291 -1.076747 0.533006
v 1.834416 1.051845 0.446319
v 1.834416 1.006169 0.491995
v 1.834416 1.045726 0.469157
v 1.834416 1.029008 0.485876
v 1.780166 1.106095 0.502172
v 1.780166 1.062023 0.546245
v 1.780166 1.100191 0.524209
v 1.780166 1.084059 0.540340
v 1.827148 1.033674 0.519120
v 1.827148 1.078970 0.473823
v 1.827148 1.056322 0.513051
v 1.827148 1.072902 0.496471
v 1.807291 1.054263 0.538977
v 1.807291 1.098827 0.494412
v 1.807291 1.076545 0.533006
v 1.807291 1.092857 0.516694
v 1.695696 -0.286033 0.495319
v 1.686017 -0.295711 0.495319
v 1.686017 0.959301 0.495319
v 1.695696 0.949622 0.495319
v 1.638567 0.902172 0.621421
v 1.628569 0.892174 0.611742
v 0.000000 0.949390 0.621421
v 0.000000 0.959301 0.611743
v 1.628569 -0.228584 0.611742
v 1.638643 -0.238659 0.621421
v 0.000000 -0.161221 0.611743
v 0.000000 -0.150940 0.621421
v 1.695696 0.949622 0.611742
v 1.686017 0.959301 0.611742
v 1.685697 0.949302 0.621421
v 1.685621 -0.285637 0.621421
v 1.686017 -0.295711 0.611742
v 1.695696 -0.286033 0.611742
v 0.000000 0.892174 0.611743
v 0.000000 0.902084 0.621421
v 0.000000 -0.104375 0.621421
v 0.000000 -0.094094 0.611743
v 0.502214 0.959301 0.611743
v 0.502214 0.949352 0.621421
v 0.502214 -0.285529 0.621421
v 0.502214 -0.295711 0.611743
v 0.502214 0.902122 0.621421
v 0.502214 0.892174 0.611743
v 0.502214 -0.228584 0.611743
v 0.502214 -0.238766 0.621421
v 0.411495 0.949381 0.621421
v 0.411495 0.959301 0.611743
v 0.411495 0.892174 0.611743
v 0.411495 0.902094 0.621421
v 0.411495 -0.150916 0.621421
v 0.411495 -0.161221 0.611743
v 0.411495 -0.094094 0.611743
v 0.411495 -0.104399 0.621421
v 1.684982 -0.382150 0.442379
v 1.694661 -0.372471 0.442379
v 1.694661 -0.356630 0.442379
v 1.684982 -0.346951 0.442379
v 1.684982 -0.346951 0.608895
v 1.694661 -0.356630 0.608895
v 1.684982 -0.357528 0.618574
v 1.694661 -0.372471 0.608895
v 1.684982 -0.382150 0.608895
v 1.684982 -0.372471 0.618574
v 0.000000 -0.244622 0.608895
v 0.000000 -0.255198 0.618574
v 0.000000 -0.372471 0.618574
v 0.000000 -0.382150 0.608895
v 0.429509 -0.372471 0.618574
v 0.429509 -0.382150 0.608895
v 0.429509 -0.357563 0.618574
v 0.429509 -0.346951 0.608895
v 0.343315 -0.382150 0.608895
v 0.343315 -0.372471 0.618574
v 0.343315 -0.244622 0.608895
v 0.343315 -0.255234 0.618574
v -1.628568 0.892174 0.566859
v -1.628568 -0.228584 0.566859
v -0.502214 0.959301 0.495320
v -0.502214 -0.295711 0.495320
v -0.502214 0.892174 0.566858
v -0.502214 -0.228584 0.566858
v -0.411495 0.959301 0.495320
v -0.411495 0.892174 0.566858
v -0.411495 -0.161221 0.495320
v -0.411495 -0.094094 0.566858
v -1.371075 -0.499159 0.379084
v -1.249321 -0.531783 0.379084
v -1.160191 -0.620913 0.379084
v -1.127567 -0.742667 0.379084
v -1.160191 -0.864421 0.379084
v -1.249321 -0.953552 0.379084
v -1.371075 -0.986176 0.379084
v -1.492829 -0.953552 0.379084
v -1.581960 -0.864421 0.379085
v -1.614583 -0.742667 0.379085
v -1.581960 -0.620913 0.379085
v -1.492829 -0.531783 0.379084
v -0.429509 -0.382150 0.442379
v -0.429509 -0.346951 0.442379
v -0.343315 -0.244622 0.442379
v -0.343315 -0.382150 0.442379
v -1.371075 -0.533947 0.681870
v -1.371075 -0.499159 0.648267
v -1.371075 -0.509349 0.672028
v -1.266715 -0.561911 0.681870
v -1.249321 -0.531783 0.648267
v -1.254416 -0.540607 0.672028
v -1.190319 -0.638307 0.681870
v -1.160191 -0.620913 0.648267
v -1.169015 -0.626008 0.672028
v -1.162355 -0.742667 0.681870
v -1.127567 -0.742667 0.648267
v -1.137756 -0.742667 0.672028
v -1.190319 -0.847027 0.681870
v -1.160191 -0.864421 0.648267
v -1.169015 -0.859327 0.672028
v -1.266715 -0.923424 0.681870
v -1.249321 -0.953552 0.648267
v -1.254416 -0.944728 0.672028
v -1.371075 -0.951387 0.681870
v -1.371075 -0.986176 0.648267
v -1.371075 -0.975986 0.672028
v -1.475435 -0.923424 0.681870
v -1.492829 -0.953552 0.648267
v -1.487735 -0.944728 0.672028
v -1.551832 -0.847027 0.681870
v -1.581959 -0.864421 0.648267
v -1.573135 -0.859327 0.672028
v -1.579795 -0.742667 0.681870
v -1.614583 -0.742667 0.648267
v -1.604394 -0.742667 0.672028
v -1.551832 -0.638307 0.681870
v -1.581959 -0.620913 0.648267
v -1.573135 -0.626008 0.672028
v -1.475435 -0.561911 0.681870
v -1.492829 -0.531783 0.648267
v -1.487735 -0.540607 0.672028
v -1.851782 0.353106 -0.205639
v -1.873258 0.353106 -0.227115
v -1.873258 0.331630 -0.205639
v -1.854652 0.353106 -0.216363
v -1.854652 0.342382 -0.205639
v -1.857438 0.342836 -0.215909
v -1.873258 0.342382 -0.224246
v -1.862534 0.353106 -0.224246
v -1.862988 0.342836 -0.221459
v -1.862534 0.334499 -0.205639
v -1.873258 0.334499 -0.216363
v -1.862988 0.337286 -0.215909
v -1.851782 1.587376 -0.205639
v -1.840382 1.567882 -0.227115
v -1.850255 1.584764 -0.216377
v -1.846082 1.577629 -0.224238
v -1.851782 0.353106 0.205641
v -1.873258 0.331630 0.205641
v -1.873258 0.353106 0.227117
v -1.854651 0.342382 0.205641
v -1.854651 0.353106 0.216365
v -1.857438 0.342836 0.215911
v -1.873258 0.334499 0.216365
v -1.862534 0.334499 0.205641
v -1.862988 0.337286 0.215911
v -1.862534 0.353106 0.224247
v -1.873258 0.342382 0.224247
v -1.862988 0.342836 0.221461
v -1.840382 1.567882 0.227116
v -1.851782 1.587376 0.205641
v -1.846082 1.577629 0.224239
v -1.850255 1.584764 0.216379
v -1.966907 1.464411 0.205641
v -1.948353 1.452628 0.227117
v -1.964421 1.462833 0.216379
v -1.957630 1.458519 0.224239
v -1.948353 1.452628 -0.227115
v -1.966908 1.464411 -0.205639
v -1.957630 1.458519 -0.224238
v -1.964422 1.462833 -0.216377
v -1.948241 0.353106 -0.227115
v -1.966908 0.353106 -0.205639
v -1.945432 0.331630 -0.205639
v -1.957357 0.353106 -0.223964
v -1.947343 0.342565 -0.223929
v -1.956569 0.342892 -0.221563
v -1.963721 0.342565 -0.205639
v -1.964110 0.353106 -0.216227
v -1.961684 0.342901 -0.215889
v -1.946329 0.334816 -0.216180
v -1.955973 0.334816 -0.205639
v -1.956146 0.337202 -0.215848
v -1.945432 0.331630 0.205641
v -1.966907 0.353106 0.205641
v -1.948240 0.353106 0.227117
v -1.955642 0.334499 0.205641
v -1.946320 0.334499 0.216365
v -1.956071 0.337286 0.215911
v -1.964927 0.353106 0.216365
v -1.963525 0.342382 0.205641
v -1.961621 0.342836 0.215911
v -1.947351 0.342382 0.224247
v -1.958075 0.353106 0.224247
v -1.956797 0.342836 0.221461
v -1.851782 1.391296 0.205641
v -1.873258 1.388074 0.227117
v -1.854659 1.390865 0.216379
v -1.862520 1.389685 0.224239
v -1.780018 1.485887 0.227116
v -1.779870 1.464411 0.205641
v -1.779944 1.475149 0.224239
v -1.779890 1.467288 0.216379
v -1.842148 1.427854 0.205641
v -1.858194 1.444993 0.227117
v -1.844298 1.430150 0.216379
v -1.850171 1.436424 0.224239
v -1.815826 1.454616 0.205641
v -1.831855 1.471735 0.227116
v -1.817974 1.456909 0.216379
v -1.823840 1.463176 0.224239
v -1.779871 1.464411 -0.205639
v -1.780019 1.485887 -0.227115
v -1.779890 1.467288 -0.216377
v -1.779945 1.475149 -0.224238
v -1.873258 1.388074 -0.227115
v -1.851782 1.391296 -0.205639
v -1.862520 1.389685 -0.224238
v -1.854660 1.390865 -0.216377
v -1.831855 1.471735 -0.227115
v -1.815827 1.454616 -0.205639
v -1.823841 1.463176 -0.224238
v -1.817974 1.456909 -0.216377
v -1.858195 1.444993 -0.227115
v -1.842148 1.427854 -0.205639
v -1.850171 1.436424 -0.224238
v -1.844298 1.430150 -0.216377
v -1.966908 1.514261 -0.205639
v -1.948699 1.494813 -0.227115
v -1.964468 1.511656 -0.216377
v -1.957803 1.504537 -0.224238
v -1.876964 1.568116 -0.227115
v -1.894996 1.587376 -0.205639
v -1.885980 1.577746 -0.224238
v -1.892580 1.584796 -0.216377
v -1.957273 1.550819 -0.205639
v -1.939340 1.531664 -0.227115
v -1.954871 1.548252 -0.216377
v -1.948307 1.541241 -0.224238
v -1.930952 1.577581 -0.205639
v -1.913069 1.558481 -0.227115
v -1.928556 1.575022 -0.216377
v -1.922011 1.568031 -0.224238
v -1.894996 1.587376 0.205641
v -1.876964 1.568116 0.227117
v -1.892580 1.584796 0.216379
v -1.885980 1.577746 0.224239
v -1.948699 1.494813 0.227117
v -1.966907 1.514261 0.205641
v -1.957803 1.504537 0.224239
v -1.964468 1.511656 0.216379
v -1.913069 1.558481 0.227117
v -1.930951 1.577581 0.205641
v -1.922010 1.568031 0.224239
v -1.928556 1.575022 0.216379
v -1.939340 1.531664 0.227117
v -1.957273 1.550819 0.205641
v -1.948306 1.541241 0.224239
v -1.954870 1.548252 0.216379
v -1.834416 1.006169 -0.491995
v -1.834416 1.051845 -0.446319
v -1.834416 1.029008 -0.485876
v -1.834416 1.045726 -0.469157
v -1.780166 1.062023 -0.546245
v -1.780166 1.106095 -0.502172
v -1.780166 1.084059 -0.540340
v -1.780166 1.100191 -0.524209
v -1.827148 1.078970 -0.473823
v -1.827148 1.033674 -0.519120
v -1.827148 1.072902 -0.496471
v -1.827148 1.056322 -0.513051
v -1.807291 1.098827 -0.494412
v -1.807291 1.054263 -0.538977
v -1.807291 1.092857 -0.516694
v -1.807291 1.076545 -0.533006
v -1.780166 -1.106297 -0.502172
v -1.780166 -1.062225 -0.546245
v -1.780166 -1.100393 -0.524208
v -1.780166 -1.084261 -0.540340
v -1.834416 -1.052047 -0.446319
v -1.834416 -1.006371 -0.491995
v -1.834416 -1.045928 -0.469157
v -1.834416 -1.029209 -0.485875
v -1.807291 -1.054465 -0.538977
v -1.807291 -1.099029 -0.494412
v -1.807291 -1.076747 -0.533006
v -1.807291 -1.093059 -0.516694
v -1.827148 -1.033876 -0.519120
v -1.827148 -1.079172 -0.473823
v -1.827148 -1.056524 -0.513051
v -1.827148 -1.073104 -0.496471
v -1.834416 -1.006371 0.491996
v -1.834416 -1.052047 0.446320
v -1.834416 -1.029209 0.485877
v -1.834416 -1.045928 0.469158
v -1.780166 -1.062225 0.546246
v -1.780166 -1.106297 0.502173
v -1.780166 -1.084261 0.540341
v -1.780166 -1.100393 0.524210
v -1.827148 -1.079172 0.473824
v -1.827148 -1.033876 0.519121
v -1.827148 -1.073104 0.496473
v -1.827148 -1.056524 0.513052
v -1.807291 -1.099029 0.494413
v -1.807291 -1.054465 0.538978
v -1.807291 -1.093059 0.516695
v -1.807291 -1.076747 0.533007
v -1.834416 1.051845 0.446320
v -1.834416 1.006169 0.491996
v -1.834416 1.045726 0.469158
v -1.834416 1.029008 0.485877
v -1.780166 1.106095 0.502173
v -1.780166 1.062023 0.546246
v -1.780166 1.100191 0.524210
v -1.780166 1.084059 0.540341
v -1.827148 1.033674 0.519121
v -1.827148 1.078970 0.473824
v -1.827148 1.056322 0.513052
v -1.827148 1.072902 0.496473
v -1.807291 1.054263 0.538978
v -1.807291 1.098827 0.494413
v -1.807291 1.076545 0.533007
v -1.807291 1.092857 0.516696
v -1.695696 -0.286033 0.495320
v -1.686017 -0.295711 0.495320
v -1.686017 0.959301 0.495320
v -1.695696 0.949622 0.495320
v -1.638567 0.902172 0.621422
v -1.628568 0.892174 0.611743
v -1.628568 -0.228584 0.611743
v -1.638643 -0.238659 0.621422
v -1.695695 0.949622 0.611743
v -1.686017 0.959301 0.611743
v -1.685697 0.949302 0.621422
v -1.685621 -0.285637 0.621422
v -1.686017 -0.295711 0.611743
v -1.695695 -0.286033 0.611743
v -0.502214 0.959301 0.611743
v -0.502214 0.949352 0.621422
v -0.502214 -0.285529 0.621422
v -0.502214 -0.295711 0.611743
v -0.502214 0.902122 0.621422
v -0.502214 0.892174 0.611743
v -0.502214 -0.228584 0.611743
v -0.502214 -0.238766 0.621422
v -0.411495 0.949381 0.621422
v -0.411495 0.959301 0.611743
v -0.411495 0.892174 0.611743
v -0.411495 0.902094 0.621422
v -0.411495 -0.150916 0.621422
v -0.411495 -0.161221 0.611743
v -0.411495 -0.094094 0.611743
v -0.411495 -0.104399 0.621422
v -1.684982 -0.382150 0.442380
v -1.694661 -0.372471 0.442380
v -1.694661 -0.356630 0.442380
v -1.684982 -0.346951 0.442380
v -1.684982 -0.346951 0.608896
v -1.694660 -0.356630 0.608896
v -1.684982 -0.357528 0.618575
v -1.694660 -0.372471 0.608896
v -1.684982 -0.382150 0.608896
v -1.684982 -0.372471 0.618575
v -0.429509 -0.372471 0.618574
v -0.429509 -0.382150 0.608896
v -0.429509 -0.357563 0.618574
v -0.429509 -0.346951 0.608896
v -0.343315 -0.382150 0.608896
v -0.343315 -0.372471 0.618574
v -0.343315 -0.244622 0.608896
v -0.343315 -0.255234 0.618574
v 1.371076 -0.742667 0.665364
v 1.579796 -0.742667 0.665363
v 1.371076 -0.638307 0.665364
v 1.162356 -0.742667 0.665364
v 1.371076 -0.847027 0.665364
v 1.551832 -0.847027 0.665363
v 1.190319 -0.847027 0.665364
v 1.551832 -0.638307 0.665363
v 1.371076 -0.533947 0.665364
v 1.190319 -0.638307 0.665364
v 1.371076 -0.951387 0.665364
v 1.266716 -0.561911 0.665364
v 1.266716 -0.923424 0.665364
v 1.475436 -0.923424 0.665363
v 1.475436 -0.561911 0.665363
v -1.371075 -0.742667 0.665364
v -1.579795 -0.742667 0.665365
v -1.371075 -0.638307 0.665364
v -1.162355 -0.742667 0.665364
v -1.371075 -0.847027 0.665364
v -1.551832 -0.847027 0.665364
v -1.190319 -0.847027 0.665364
v -1.551832 -0.638307 0.665364
v -1.371075 -0.533947 0.665364
v -1.190319 -0.638307 0.665364
v -1.371075 -0.951387 0.665364
v -1.266715 -0.561911 0.665364
v -1.266715 -0.923424 0.665364
v -1.475435 -0.923424 0.665364
v -1.475435 -0.561911 0.665364
vn -0.0000 -0.0000 1.0000
vn -0.4511 -0.0000 0.8925
vn -0.3907 -0.2256 0.8925
vn -0.8660 -0.5000 -0.0000
vn -1.0000 -0.0000 -0.0000
vn -0.0000 -0.0000 -1.0000
vn -0.0000 0.4511 0.8925
vn -0.2256 0.3907 0.8925
vn -0.5000 0.8660 -0.0000
vn -0.0000 1.0000 -0.0000
vn 0.4511 -0.0000 0.8925
vn 0.3907 0.2256 0.8925
vn 0.8660 0.5000 -0.0000
vn 1.0000 -0.0000 -0.0000
vn -0.0000 -0.4511 0.8925
vn 0.2256 -0.3907 0.8925
vn 0.5000 -0.8660 -0.0000
vn -0.0000 -1.0000 -0.0000
vn -0.0000 0.9808 0.1949
vn -0.4904 0.8494 0.1949
vn -0.3641 0.6306 0.6854
vn -0.0000 0.7282 0.6854
vn -0.8494 0.4904 0.1949
vn -0.6306 0.3641 0.6854
vn 0.3907 -0.2256 0.8925
vn -0.9808 -0.0000 0.1949
vn -0.7282 -0.0000 0.6854
vn -0.8494 -0.4904 0.1949
vn -0.6306 -0.3641 0.6854
vn -0.4904 -0.8494 0.1949
vn -0.3641 -0.6306 0.6854
vn 0.2256 0.3907 0.8925
vn -0.0000 -0.9808 0.1949
vn -0.0000 -0.7282 0.6854
vn 0.4904 -0.8494 0.1949
vn 0.3641 -0.6306 0.6854
vn 0.8494 -0.4904 0.1949
vn 0.6306 -0.3641 0.6854
vn -0.3907 0.2256 0.8925
vn 0.9808 -0.0000 0.1949
vn 0.7282 -0.0000 0.6854
vn 0.8494 0.4904 0.1949
vn 0.6306 0.3641 0.6854
vn 0.4904 0.8494 0.1949
vn 0.3641 0.6306 0.6854
vn -0.2256 -0.3907 0.8925
vn -0.5000 -0.8660 -0.0000
vn 0.5000 0.8660 -0.0000
vn -0.8660 0.5000 -0.0000
vn 0.8660 -0.5000 -0.0000
vn -0.9831 -0.1296 -0.1296
vn -0.8623 -0.1216 -0.4916
vn -0.7744 -0.4473 -0.4474
vn -0.8623 -0.4915 -0.1216
vn -0.4916 -0.1216 -0.8623
vn -0.4473 -0.4473 -0.7744
vn -0.1291 -0.1337 -0.9826
vn -0.1196 -0.4953 -0.8604
vn -0.1196 -0.8605 -0.4952
vn -0.4473 -0.7744 -0.4474
vn -0.1290 -0.9826 -0.1336
vn -0.4915 -0.8623 -0.1216
vn -0.9831 -0.1296 0.1296
vn -0.8623 -0.4915 0.1216
vn -0.7744 -0.4473 0.4474
vn -0.8623 -0.1216 0.4916
vn -0.4915 -0.8623 0.1216
vn -0.4473 -0.7744 0.4474
vn -0.1296 -0.9831 0.1296
vn -0.1216 -0.8623 0.4915
vn -0.1216 -0.4915 0.8623
vn -0.4473 -0.4473 0.7744
vn -0.1296 -0.1296 0.9831
vn -0.4916 -0.1216 0.8623
vn 0.1536 -0.1369 -0.9786
vn 0.5395 -0.1222 -0.8331
vn 0.4687 -0.4546 -0.7574
vn 0.1247 -0.5020 -0.8558
vn 0.8839 -0.1183 -0.4525
vn 0.7986 -0.4469 -0.4031
vn 0.9834 -0.1392 -0.1163
vn 0.8596 -0.5017 -0.0975
vn 0.4971 -0.8616 -0.1027
vn 0.4525 -0.7874 -0.4185
vn 0.1330 -0.9826 -0.1293
vn 0.1202 -0.8644 -0.4882
vn 0.1350 -0.9830 0.1245
vn 0.4956 -0.8625 0.1027
vn 0.4624 -0.7849 0.4125
vn 0.1287 -0.8666 0.4820
vn 0.8537 -0.5135 0.0868
vn 0.7910 -0.4762 0.3842
vn 0.9839 -0.1504 0.0967
vn 0.8914 -0.1442 0.4297
vn 0.5351 -0.1378 0.8335
vn 0.4740 -0.4721 0.7433
vn 0.1459 -0.1349 0.9801
vn 0.1303 -0.4994 0.8565
vn 0.1554 -0.0003 -0.9878
vn 0.5509 -0.0011 -0.8345
vn 0.8904 -0.0008 -0.4551
vn 0.9932 -0.0002 -0.1164
vn 0.1472 -0.0003 0.9891
vn 0.5478 -0.0008 0.8366
vn 0.8951 -0.0006 0.4458
vn 0.9942 -0.0001 0.1079
vn -0.0001 0.9929 0.1187
vn -0.0000 0.9929 0.1192
vn -0.0000 0.8830 0.4693
vn -0.0005 0.8839 0.4677
vn -0.0000 0.5309 0.8475
vn -0.0007 0.5323 0.8465
vn -0.0000 0.1428 0.9898
vn -0.0002 0.1430 0.9897
vn -0.0002 0.1430 -0.9897
vn -0.0000 0.1428 -0.9898
vn -0.0000 0.5309 -0.8475
vn -0.0007 0.5323 -0.8465
vn -0.0000 0.8830 -0.4693
vn -0.0005 0.8839 -0.4677
vn -0.0000 0.9929 -0.1192
vn -0.0001 0.9929 -0.1187
vn 0.0603 0.1156 -0.9915
vn 0.0105 0.1470 -0.9891
vn 0.0564 0.5170 -0.8541
vn 0.2313 0.4162 -0.8794
vn 0.1189 0.8610 -0.4946
vn 0.4268 0.7275 -0.5372
vn 0.1384 0.9817 -0.1304
vn 0.5039 0.8506 -0.1505
vn 0.0105 0.1470 0.9891
vn 0.0603 0.1156 0.9915
vn 0.2313 0.4162 0.8794
vn 0.0564 0.5170 0.8541
vn 0.4268 0.7275 0.5372
vn 0.1189 0.8610 0.4946
vn 0.5039 0.8506 0.1505
vn 0.1384 0.9817 0.1304
vn 0.1203 0.0581 -0.9910
vn 0.4267 0.2257 -0.8758
vn 0.7354 0.4193 -0.5323
vn 0.8563 0.4948 -0.1483
vn 0.1204 0.0581 0.9910
vn 0.4267 0.2257 0.8758
vn 0.7354 0.4193 0.5323
vn 0.8563 0.4948 0.1483
vn 0.1544 0.0095 -0.9880
vn 0.5320 0.0547 -0.8450
vn 0.8686 0.1166 -0.4816
vn 0.9829 0.1349 -0.1253
vn 0.1544 0.0095 0.9880
vn 0.5320 0.0547 0.8450
vn 0.8686 0.1166 0.4816
vn 0.9829 0.1349 0.1253
vn -0.0540 -0.0864 0.9948
vn -0.0149 -0.1195 0.9927
vn -0.0638 -0.4817 0.8740
vn -0.2255 -0.3849 0.8950
vn -0.1162 -0.8542 0.5067
vn -0.4182 -0.7306 0.5398
vn -0.1329 -0.9825 0.1309
vn -0.4956 -0.8570 0.1415
vn -0.0149 -0.1195 -0.9927
vn -0.0540 -0.0864 -0.9948
vn -0.2255 -0.3849 -0.8950
vn -0.0638 -0.4817 -0.8740
vn -0.4182 -0.7306 -0.5398
vn -0.1162 -0.8542 -0.5067
vn -0.4956 -0.8570 -0.1415
vn -0.1329 -0.9825 -0.1309
vn -0.0880 -0.0548 0.9946
vn -0.3938 -0.2245 0.8914
vn -0.7416 -0.4094 0.5314
vn -0.8643 -0.4836 0.1385
vn -0.0880 -0.0548 -0.9946
vn -0.3938 -0.2245 -0.8914
vn -0.7416 -0.4094 -0.5314
vn -0.8643 -0.4836 -0.1385
vn -0.1218 -0.0134 0.9925
vn -0.4890 -0.0621 0.8701
vn -0.8590 -0.1155 0.4988
vn -0.9832 -0.1304 0.1281
vn -0.1218 -0.0134 -0.9925
vn -0.4890 -0.0621 -0.8701
vn -0.8590 -0.1155 -0.4988
vn -0.9832 -0.1304 -0.1281
vn -0.0000 -0.9914 0.1305
vn -0.0000 -0.8660 0.5000
vn -0.0000 -0.5000 0.8660
vn -0.0000 -0.1305 0.9914
vn -0.0000 -0.1305 -0.9914
vn -0.0000 -0.5000 -0.8660
vn -0.0000 -0.8660 -0.5000
vn -0.0000 -0.9914 -0.1305
vn 0.5336 -0.1132 0.8381
vn 0.1469 -0.1380 0.9795
vn 0.1732 -0.4984 0.8495
vn 0.5840 -0.4050 0.7035
vn 0.1732 -0.8495 0.4984
vn 0.5840 -0.7035 0.4050
vn 0.1469 -0.9795 0.1380
vn 0.5336 -0.8381 0.1132
vn 0.1469 -0.1380 -0.9795
vn 0.5336 -0.1132 -0.8381
vn 0.5840 -0.4050 -0.7035
vn 0.1732 -0.4984 -0.8495
vn 0.5840 -0.7035 -0.4050
vn 0.1732 -0.8495 -0.4984
vn 0.5336 -0.8381 -0.1132
vn 0.1469 -0.9795 -0.1380
vn 0.8754 -0.0500 0.4808
vn 0.9026 -0.2041 0.3790
vn 0.9026 -0.3790 0.2041
vn 0.8754 -0.4808 0.0500
vn 0.8754 -0.0500 -0.4808
vn 0.9026 -0.2041 -0.3790
vn 0.9026 -0.3790 -0.2041
vn 0.8754 -0.4808 -0.0500
vn 0.9912 -0.0093 0.1322
vn 0.9935 -0.0514 0.1018
vn 0.9935 -0.1018 0.0514
vn 0.9912 -0.1322 0.0093
vn 0.9912 -0.0093 -0.1322
vn 0.9935 -0.0514 -0.1018
vn 0.9935 -0.1018 -0.0514
vn 0.9912 -0.1322 -0.0093
vn 0.1469 0.9795 -0.1380
vn 0.5336 0.8381 -0.1132
vn 0.5840 0.7035 -0.4050
vn 0.1732 0.8495 -0.4984
vn 0.5840 0.4050 -0.7035
vn 0.1732 0.4984 -0.8495
vn 0.5336 0.1132 -0.8381
vn 0.1469 0.1380 -0.9795
vn 0.8754 0.4808 -0.0500
vn 0.9026 0.3790 -0.2041
vn 0.9026 0.2041 -0.3790
vn 0.8754 0.0500 -0.4808
vn 0.9912 0.1322 -0.0093
vn 0.9935 0.1018 -0.0514
vn 0.9935 0.0514 -0.1018
vn 0.9912 0.0093 -0.1322
vn 0.5336 0.8381 0.1132
vn 0.1469 0.9795 0.1380
vn 0.1732 0.8495 0.4984
vn 0.5840 0.7035 0.4050
vn 0.1732 0.4984 0.8495
vn 0.5840 0.4050 0.7035
vn 0.1469 0.1380 0.9795
vn 0.5336 0.1132 0.8381
vn 0.8754 0.4808 0.0500
vn 0.9026 0.3790 0.2041
vn 0.9026 0.2041 0.3790
vn 0.8754 0.0500 0.4808
vn 0.9912 0.1322 0.0093
vn 0.9935 0.1018 0.0514
vn 0.9935 0.0514 0.1018
vn 0.9912 0.0093 0.1322
vn -0.0000 0.9914 -0.1305
vn -0.0000 0.8660 -0.5000
vn -0.0000 0.5000 -0.8660
vn -0.0000 0.1305 -0.9914
vn -0.0000 0.1305 0.9914
vn -0.0000 0.5000 0.8660
vn -0.0000 0.8660 0.5000
vn -0.0000 0.9914 0.1305
vn 0.5646 0.5646 0.6020
vn 0.5616 -0.5616 0.6076
vn 0.5595 0.5595 0.6114
vn 0.5774 -0.5774 0.5773
vn -0.0000 0.6985 0.7156
vn 0.6942 -0.0000 0.7198
vn -0.0000 -0.6909 0.7230
vn 0.7071 0.7071 -0.0000
vn 0.7071 -0.7071 -0.0000
vn -0.0000 -0.6985 0.7156
vn -0.6941 -0.0000 0.7198
vn -0.0000 0.6909 0.7230
vn -0.0000 0.6964 0.7176
vn -0.7136 -0.4811 0.5092
vn -0.0000 -0.6964 0.7176
vn 0.7133 0.4814 0.5094
vn 0.0001 0.6978 0.7163
vn 0.0001 -0.6978 0.7163
vn -0.0000 -0.6850 0.7285
vn -0.0000 0.6850 0.7285
vn -0.0000 0.6745 0.7383
vn -0.0000 -0.7071 0.7071
vn 0.6247 0.5262 0.5769
vn 0.7071 -0.0000 0.7071
vn -0.8290 -0.5592 -0.0000
vn 0.8290 0.5592 -0.0000
vn 0.7648 0.6442 -0.0000
vn 0.9831 -0.1296 -0.1296
vn 0.8623 -0.4915 -0.1216
vn 0.7744 -0.4473 -0.4474
vn 0.8623 -0.1216 -0.4916
vn 0.4473 -0.4473 -0.7744
vn 0.4916 -0.1216 -0.8623
vn 0.1291 -0.1337 -0.9826
vn 0.1196 -0.4953 -0.8604
vn 0.4473 -0.7744 -0.4474
vn 0.1196 -0.8605 -0.4952
vn 0.1290 -0.9826 -0.1336
vn 0.4915 -0.8623 -0.1216
vn 0.9831 -0.1296 0.1296
vn 0.8623 -0.1216 0.4916
vn 0.7744 -0.4473 0.4474
vn 0.8623 -0.4915 0.1216
vn 0.4473 -0.7744 0.4474
vn 0.4915 -0.8623 0.1216
vn 0.1296 -0.9831 0.1296
vn 0.1216 -0.8623 0.4915
vn 0.4473 -0.4473 0.7744
vn 0.1216 -0.4915 0.8623
vn 0.1296 -0.1296 0.9831
vn 0.4916 -0.1216 0.8623
vn -0.1536 -0.1369 -0.9786
vn -0.1247 -0.5020 -0.8558
vn -0.4687 -0.4546 -0.7574
vn -0.5395 -0.1222 -0.8331
vn -0.7986 -0.4469 -0.4031
vn -0.8839 -0.1183 -0.4525
vn -0.9834 -0.1392 -0.1163
vn -0.8596 -0.5017 -0.0975
vn -0.4525 -0.7874 -0.4185
vn -0.4971 -0.8616 -0.1027
vn -0.1330 -0.9826 -0.1293
vn -0.1202 -0.8644 -0.4882
vn -0.1350 -0.9830 0.1245
vn -0.1287 -0.8666 0.4820
vn -0.4624 -0.7849 0.4125
vn -0.4956 -0.8625 0.1027
vn -0.7910 -0.4762 0.3842
vn -0.8537 -0.5135 0.0868
vn -0.9839 -0.1504 0.0967
vn -0.8914 -0.1442 0.4297
vn -0.4740 -0.4721 0.7433
vn -0.5351 -0.1378 0.8335
vn -0.1459 -0.1349 0.9801
vn -0.1303 -0.4994 0.8565
vn -0.5509 -0.0011 -0.8345
vn -0.1554 -0.0003 -0.9878
vn -0.8904 -0.0008 -0.4551
vn -0.9932 -0.0002 -0.1164
vn -0.1472 -0.0003 0.9891
vn -0.5478 -0.0008 0.8366
vn -0.8951 -0.0006 0.4458
vn -0.9942 -0.0001 0.1079
vn 0.0001 0.9929 0.1187
vn 0.0005 0.8839 0.4677
vn 0.0007 0.5323 0.8465
vn 0.0002 0.1430 0.9897
vn 0.0002 0.1430 -0.9897
vn 0.0007 0.5323 -0.8465
vn 0.0005 0.8839 -0.4677
vn 0.0001 0.9929 -0.1187
vn -0.0603 0.1156 -0.9915
vn -0.2313 0.4162 -0.8794
vn -0.0564 0.5170 -0.8541
vn -0.0105 0.1470 -0.9891
vn -0.4268 0.7275 -0.5372
vn -0.1189 0.8610 -0.4946
vn -0.5039 0.8506 -0.1505
vn -0.1384 0.9817 -0.1304
vn -0.0105 0.1470 0.9891
vn -0.0564 0.5170 0.8541
vn -0.2313 0.4162 0.8794
vn -0.0603 0.1156 0.9915
vn -0.1189 0.8610 0.4946
vn -0.4268 0.7275 0.5372
vn -0.1384 0.9817 0.1304
vn -0.5039 0.8506 0.1505
vn -0.1204 0.0581 -0.9910
vn -0.4267 0.2257 -0.8758
vn -0.7354 0.4193 -0.5323
vn -0.8563 0.4948 -0.1483
vn -0.4267 0.2257 0.8758
vn -0.1203 0.0581 0.9910
vn -0.7354 0.4193 0.5323
vn -0.8563 0.4948 0.1483
vn -0.1544 0.0095 -0.9880
vn -0.5320 0.0547 -0.8450
vn -0.8686 0.1166 -0.4816
vn -0.9829 0.1349 -0.1253
vn -0.5320 0.0547 0.8450
vn -0.1544 0.0095 0.9880
vn -0.8686 0.1166 0.4816
vn -0.9829 0.1349 0.1253
vn 0.0540 -0.0864 0.9948
vn 0.2255 -0.3849 0.8950
vn 0.0638 -0.4817 0.8740
vn 0.0149 -0.1195 0.9927
vn 0.4182 -0.7306 0.5398
vn 0.1162 -0.8542 0.5067
vn 0.4956 -0.8570 0.1415
vn 0.1329 -0.9825 0.1309
vn 0.0149 -0.1195 -0.9927
vn 0.0638 -0.4817 -0.8740
vn 0.2255 -0.3849 -0.8950
vn 0.0540 -0.0864 -0.9948
vn 0.1162 -0.8542 -0.5067
vn 0.4182 -0.7306 -0.5398
vn 0.1329 -0.9825 -0.1309
vn 0.4956 -0.8570 -0.1415
vn 0.0880 -0.0548 0.9946
vn 0.3938 -0.2245 0.8914
vn 0.7416 -0.4094 0.5314
vn 0.8643 -0.4836 0.1385
vn 0.3938 -0.2245 -0.8914
vn 0.0880 -0.0548 -0.9946
vn 0.7416 -0.4094 -0.5314
vn 0.8643 -0.4836 -0.1385
vn 0.1218 -0.0134 0.9925
vn 0.4890 -0.0621 0.8701
vn 0.8590 -0.1155 0.4988
vn 0.9832 -0.1304 0.1281
vn 0.4890 -0.0621 -0.8701
vn 0.1218 -0.0134 -0.9925
vn 0.8590 -0.1155 -0.4988
vn 0.9832 -0.1304 -0.1281
vn -0.5336 -0.1132 0.8381
vn -0.5840 -0.4050 0.7035
vn -0.1732 -0.4984 0.8495
vn -0.1469 -0.1380 0.9795
vn -0.5840 -0.7035 0.4050
vn -0.1732 -0.8495 0.4984
vn -0.5336 -0.8381 0.1132
vn -0.1469 -0.9795 0.1380
vn -0.1469 -0.1380 -0.9795
vn -0.1732 -0.4984 -0.8495
vn -0.5840 -0.4050 -0.7035
vn -0.5336 -0.1132 -0.8381
vn -0.1732 -0.8495 -0.4984
vn -0.5840 -0.7035 -0.4050
vn -0.1469 -0.9795 -0.1380
vn -0.5336 -0.8381 -0.1132
vn -0.8754 -0.0500 0.4808
vn -0.9026 -0.2041 0.3790
vn -0.9026 -0.3790 0.2041
vn -0.8754 -0.4808 0.0500
vn -0.9026 -0.2041 -0.3790
vn -0.8754 -0.0500 -0.4808
vn -0.9026 -0.3790 -0.2041
vn -0.8754 -0.4808 -0.0500
vn -0.9912 -0.0093 0.1322
vn -0.9935 -0.0514 0.1018
vn -0.9935 -0.1018 0.0514
vn -0.9912 -0.1322 0.0093
vn -0.9935 -0.0514 -0.1018
vn -0.9912 -0.0093 -0.1322
vn -0.9935 -0.1018 -0.0514
vn -0.9912 -0.1322 -0.0093
vn -0.1469 0.9795 -0.1380
vn -0.1732 0.8495 -0.4984
vn -0.5840 0.7035 -0.4050
vn -0.5336 0.8381 -0.1132
vn -0.1732 0.4984 -0.8495
vn -0.5840 0.4050 -0.7035
vn -0.1469 0.1380 -0.9795
vn -0.5336 0.1132 -0.8381
vn -0.9026 0.3790 -0.2041
vn -0.8754 0.4808 -0.0500
vn -0.9026 0.2041 -0.3790
vn -0.8754 0.0500 -0.4808
vn -0.9935 0.1018 -0.0514
vn -0.9912 0.1322 -0.0093
vn -0.9935 0.0514 -0.1018
vn -0.9912 0.0093 -0.1322
vn -0.5336 0.8381 0.1132
vn -0.5840 0.7035 0.4050
vn -0.1732 0.8495 0.4984
vn -0.1469 0.9795 0.1380
vn -0.5840 0.4050 0.7035
vn -0.1732 0.4984 0.8495
vn -0.5336 0.1132 0.8381
vn -0.1469 0.1380 0.9795
vn -0.8754 0.4808 0.0500
vn -0.9026 0.3790 0.2041
vn -0.9026 0.2041 0.3790
vn -0.8754 0.0500 0.4808
vn -0.9912 0.1322 0.0093
vn -0.9935 0.1018 0.0514
vn -0.9935 0.0514 0.1018
vn -0.9912 0.0093 0.1322
vn -0.5646 0.5646 0.6020
vn -0.5616 -0.5616 0.6076
vn -0.5595 0.5595 0.6114
vn -0.5774 -0.5774 0.5773
vn -0.6942 -0.0000 0.7198
vn -0.7071 0.7071 -0.0000
vn -0.7071 -0.7071 -0.0000
vn 0.6941 -0.0000 0.7198
vn 0.7136 -0.4811 0.5092
vn -0.7133 0.4814 0.5094
vn -0.0001 0.6978 0.7163
vn -0.0001 -0.6978 0.7163
vn -0.6247 0.5262 0.5769
vn -0.7071 -0.0000 0.7071
vn 0.8290 -0.5592 -0.0000
vn -0.8290 0.5592 -0.0000
vn -0.7648 0.6442 -0.0000
vt 0.279387 0.433316
vt 0.279387 0.590844
vt 0.122641 0.590844
vt 0.122641 0.433316
vt 0.260577 0.420628
vt 0.122641 0.420628
vt 0.260577 0.363077
vt 0.122641 0.363077
vt 0.534167 0.732875
vt 0.533487 0.724808
vt 0.534728 0.725082
vt 0.535269 0.732492
vt 0.227925 0.747387
vt 0.239805 0.747490
vt 0.240946 0.750837
vt 0.233369 0.756794
vt 0.554175 0.742648
vt 0.546064 0.743189
vt 0.546260 0.742039
vt 0.553773 0.741551
vt 0.563976 0.722793
vt 0.564526 0.730867
vt 0.563371 0.730668
vt 0.562882 0.723199
vt 0.544236 0.713119
vt 0.552261 0.712518
vt 0.552078 0.713686
vt 0.544645 0.714219
vt 0.198278 0.755225
vt 0.198278 0.769593
vt 0.460960 0.720935
vt 0.465810 0.714351
vt 0.466557 0.715244
vt 0.462071 0.721309
vt 0.481345 0.711900
vt 0.487925 0.716652
vt 0.487033 0.717406
vt 0.480948 0.712998
vt 0.490426 0.732093
vt 0.485680 0.738673
vt 0.484930 0.737772
vt 0.489334 0.731690
vt 0.542969 0.709635
vt 0.552898 0.708901
vt 0.552584 0.710687
vt 0.543613 0.711375
vt 0.561878 0.713275
vt 0.560702 0.714675
vt 0.559498 0.716071
vt 0.567456 0.721577
vt 0.565709 0.722186
vt 0.568106 0.731557
vt 0.566336 0.731215
vt 0.563701 0.740530
vt 0.562313 0.739348
vt 0.560929 0.738139
vt 0.555391 0.746102
vt 0.554774 0.744385
vt 0.545401 0.746788
vt 0.545720 0.744993
vt 0.536379 0.742397
vt 0.537547 0.741005
vt 0.538747 0.739618
vt 0.530687 0.734037
vt 0.532429 0.733446
vt 0.529609 0.723785
vt 0.531541 0.724307
vt 0.535191 0.715439
vt 0.536349 0.716623
vt 0.537585 0.717755
vt 0.538387 0.718453
vt 0.539421 0.691102
vt 0.559434 0.691257
vt 0.521598 0.701046
vt 0.576489 0.701392
vt 0.586081 0.718672
vt 0.585705 0.738376
vt 0.575541 0.755234
vt 0.558345 0.764758
vt 0.538736 0.764466
vt 0.521931 0.754540
vt 0.512338 0.737761
vt 0.512699 0.718515
vt 0.871072 0.802678
vt 0.872026 0.799151
vt 0.872586 0.798408
vt 0.872796 0.802242
vt 0.868745 0.796290
vt 0.873242 0.797551
vt 0.882280 0.964611
vt 0.890007 0.958686
vt 0.890791 0.959975
vt 0.884726 0.967188
vt 0.892900 0.954084
vt 0.893735 0.955384
vt 0.895314 0.949267
vt 0.896843 0.949262
vt 0.874340 0.802101
vt 0.873730 0.799060
vt 0.875454 0.859897
vt 0.877051 0.859975
vt 0.878936 0.863523
vt 0.876059 0.862695
vt 0.878604 0.859862
vt 0.879796 0.862884
vt 0.888822 0.881294
vt 0.885920 0.876477
vt 0.885738 0.873779
vt 0.890324 0.881085
vt 0.882259 0.872193
vt 0.880009 0.866888
vt 0.875510 0.868857
vt 0.876045 0.866360
vt 0.882287 0.955495
vt 0.879662 0.952793
vt 0.883261 0.951092
vt 0.884103 0.952992
vt 0.882253 0.947918
vt 0.882779 0.949048
vt 0.880749 0.944713
vt 0.882661 0.945725
vt 0.884168 0.946371
vt 0.883810 0.949160
vt 0.885663 0.946962
vt 0.885058 0.949960
vt 0.880113 0.885210
vt 0.878757 0.885983
vt 0.878395 0.883150
vt 0.879601 0.882401
vt 0.877314 0.886864
vt 0.877567 0.883332
vt 0.875817 0.887971
vt 0.875148 0.884935
vt 0.875558 0.880474
vt 0.877416 0.881241
vt 0.877019 0.877790
vt 0.878584 0.879757
vt 0.729699 0.969576
vt 0.730840 0.966290
vt 0.730353 0.962529
vt 0.730179 0.959752
vt 0.726924 0.890695
vt 0.726889 0.893806
vt 0.730239 0.896406
vt 0.727958 0.901532
vt 0.705621 0.903682
vt 0.453087 0.892219
vt 0.453094 0.887660
vt 0.706166 0.898162
vt 0.453093 0.882992
vt 0.706386 0.893172
vt 0.453023 0.877410
vt 0.706423 0.887795
vt 0.703236 0.975429
vt 0.452663 0.968162
vt 0.452727 0.963604
vt 0.703738 0.969976
vt 0.452653 0.957277
vt 0.704322 0.964928
vt 0.452713 0.949887
vt 0.704502 0.959344
vt 0.714778 0.966653
vt 0.710050 0.970931
vt 0.709832 0.966233
vt 0.714751 0.964473
vt 0.710403 0.963712
vt 0.714715 0.962491
vt 0.710083 0.960569
vt 0.714716 0.960732
vt 0.711331 0.891986
vt 0.714827 0.895758
vt 0.714621 0.898152
vt 0.710829 0.896910
vt 0.714524 0.900257
vt 0.711018 0.899463
vt 0.714459 0.902082
vt 0.710425 0.902503
vt 0.720175 0.966199
vt 0.719757 0.964182
vt 0.719458 0.962372
vt 0.719341 0.960721
vt 0.718743 0.895715
vt 0.718607 0.898004
vt 0.718511 0.899987
vt 0.718485 0.901719
vt 0.725350 0.967451
vt 0.724542 0.965111
vt 0.724137 0.962725
vt 0.723991 0.960615
vt 0.722094 0.893025
vt 0.722480 0.896480
vt 0.722268 0.898812
vt 0.722540 0.901348
vt 0.712769 0.877263
vt 0.700616 0.879747
vt 0.702248 0.872527
vt 0.711782 0.874903
vt 0.703105 0.868146
vt 0.710688 0.872736
vt 0.704167 0.862529
vt 0.711625 0.869134
vt 0.695756 0.983211
vt 0.712648 0.983185
vt 0.711186 0.984917
vt 0.695612 0.988159
vt 0.707621 0.799917
vt 0.713880 0.806473
vt 0.712944 0.807781
vt 0.707264 0.804441
vt 0.712643 0.810153
vt 0.707053 0.810189
vt 0.719650 0.877626
vt 0.720222 0.875464
vt 0.720449 0.872967
vt 0.719805 0.869854
vt 0.724372 0.981130
vt 0.725722 0.982514
vt 0.717796 0.807450
vt 0.718156 0.808978
vt 0.718207 0.810650
vt 0.732229 0.878748
vt 0.729667 0.875843
vt 0.732295 0.873166
vt 0.727356 0.868984
vt 0.738862 0.978074
vt 0.740148 0.980947
vt 0.723779 0.804810
vt 0.723722 0.808578
vt 0.723770 0.811148
vt 0.453183 0.851131
vt 0.453154 0.856609
vt 0.453146 0.861923
vt 0.453118 0.866872
vt 0.452655 0.979557
vt 0.452570 0.984509
vt 0.453484 0.791179
vt 0.453507 0.796704
vt 0.453440 0.802529
vt 0.514286 0.313722
vt 0.517171 0.313864
vt 0.517336 0.315548
vt 0.514728 0.315443
vt 0.517316 0.317185
vt 0.514662 0.317198
vt 0.517071 0.318853
vt 0.514157 0.318945
vt 0.512782 0.409221
vt 0.509680 0.409137
vt 0.510391 0.407358
vt 0.513119 0.407462
vt 0.510516 0.405562
vt 0.513198 0.405774
vt 0.510207 0.403778
vt 0.513094 0.404068
vt 0.511035 0.312641
vt 0.510877 0.314962
vt 0.510901 0.317550
vt 0.510720 0.320020
vt 0.505892 0.409975
vt 0.506409 0.407433
vt 0.506817 0.404881
vt 0.506950 0.402445
vt 0.507795 0.310481
vt 0.507270 0.312564
vt 0.509005 0.316645
vt 0.505533 0.314231
vt 0.506384 0.317340
vt 0.503046 0.314936
vt 0.396744 0.318166
vt 0.399619 0.315596
vt 0.400423 0.317560
vt 0.397561 0.320139
vt 0.402341 0.318941
vt 0.399484 0.321525
vt 0.404861 0.319358
vt 0.402010 0.321965
vt 0.467924 0.031118
vt 0.464848 0.032509
vt 0.463854 0.030273
vt 0.467319 0.028869
vt 0.470667 0.604833
vt 0.467117 0.603663
vt 0.468352 0.601660
vt 0.471471 0.602624
vt 0.468793 0.599582
vt 0.471847 0.600523
vt 0.462098 0.035186
vt 0.460803 0.032960
vt 0.463313 0.601798
vt 0.464982 0.599740
vt 0.465818 0.597476
vt 0.388789 0.133554
vt 0.391988 0.135883
vt 0.389542 0.136528
vt 0.386341 0.134220
vt 0.387829 0.138074
vt 0.384624 0.135772
vt 0.387305 0.140100
vt 0.384087 0.137808
vt 0.500295 0.125919
vt 0.503596 0.125580
vt 0.504115 0.127443
vt 0.501254 0.127722
vt 0.504389 0.129222
vt 0.501605 0.129577
vt 0.504401 0.131011
vt 0.501463 0.131424
vt 0.496195 0.125386
vt 0.497102 0.127982
vt 0.497860 0.130592
vt 0.498371 0.132861
vt 0.490103 0.131331
vt 0.493079 0.128641
vt 0.495773 0.129094
vt 0.492673 0.131803
vt 0.494631 0.133294
vt 0.495445 0.135317
vt 0.687698 0.406419
vt 0.687694 0.408271
vt 0.687689 0.410125
vt 0.687684 0.411979
vt 0.688849 0.016533
vt 0.688891 0.014241
vt 0.687361 0.621342
vt 0.687356 0.619099
vt 0.687351 0.616796
vt 0.688365 0.121079
vt 0.688370 0.119123
vt 0.688375 0.117162
vt 0.688381 0.115197
vt 0.687855 0.315031
vt 0.687856 0.316842
vt 0.687856 0.318654
vt 0.687856 0.320466
vt 0.074817 0.666239
vt 0.074909 0.663846
vt 0.081088 0.664206
vt 0.312387 0.672926
vt 0.317672 0.675923
vt 0.317650 0.678362
vt 0.350551 0.695768
vt 0.350808 0.693289
vt 0.352886 0.701093
vt 0.356479 0.711458
vt 0.359986 0.720793
vt 0.358009 0.718542
vt 0.080787 0.433690
vt 0.088475 0.362537
vt 0.090959 0.362582
vt 0.083145 0.433796
vt 0.309067 0.679757
vt 0.079379 0.669703
vt 0.328512 0.459740
vt 0.323123 0.459491
vt 0.054074 0.665044
vt 0.054340 0.662648
vt 0.338356 0.679038
vt 0.338332 0.676634
vt 0.091128 0.434113
vt 0.099464 0.362719
vt 0.101969 0.362752
vt 0.093444 0.434183
vt 0.093633 0.651205
vt 0.298278 0.661615
vt 0.301269 0.665882
vt 0.088900 0.655643
vt 0.314712 0.457736
vt 0.310614 0.457922
vt 0.081742 0.450015
vt 0.086192 0.450147
vt 0.307806 0.435994
vt 0.304786 0.436478
vt 0.092561 0.450221
vt 0.098171 0.450352
vt 0.295160 0.436526
vt 0.292124 0.437029
vt 0.308837 0.363494
vt 0.306396 0.363500
vt 0.298369 0.363533
vt 0.295942 0.363540
vt 0.198278 0.739611
vt 0.198278 0.738249
vt 0.224698 0.731889
vt 0.224882 0.733137
vt 0.247252 0.765327
vt 0.248528 0.768139
vt 0.240407 0.771077
vt 0.239790 0.769959
vt 0.208187 0.784789
vt 0.207548 0.783674
vt 0.235260 0.731550
vt 0.234734 0.729149
vt 0.351139 0.709846
vt 0.351768 0.708865
vt 0.350996 0.707945
vt 0.349841 0.707601
vt 0.307541 0.700310
vt 0.078313 0.690186
vt 0.348913 0.458193
vt 0.061165 0.449268
vt 0.097455 0.647629
vt 0.293268 0.657016
vt 0.102315 0.450460
vt 0.060526 0.432621
vt 0.067837 0.361974
vt 0.304779 0.458144
vt 0.329428 0.363552
vt 0.329502 0.432133
vt 0.110122 0.362865
vt 0.100841 0.434345
vt 0.282327 0.440621
vt 0.285790 0.363582
vt 0.370752 0.704104
vt 0.374823 0.449036
vt 0.380209 0.449079
vt 0.376140 0.704098
vt 0.354642 0.430758
vt 0.356272 0.361441
vt 0.380181 0.361441
vt 0.378370 0.431587
vt 0.279387 0.292839
vt 0.122641 0.292839
vt 0.122641 0.135311
vt 0.279387 0.135311
vt 0.260577 0.305527
vt 0.122641 0.305527
vt 0.539491 0.738722
vt 0.168630 0.747387
vt 0.163186 0.756794
vt 0.155610 0.750837
vt 0.156750 0.747490
vt 0.560034 0.737389
vt 0.470299 0.741026
vt 0.463925 0.736145
vt 0.464728 0.735429
vt 0.470707 0.739924
vt 0.558751 0.716975
vt 0.460012 0.728979
vt 0.461237 0.728710
vt 0.473261 0.711056
vt 0.473462 0.712205
vt 0.491260 0.724044
vt 0.490106 0.724249
vt 0.468908 0.744476
vt 0.469621 0.742745
vt 0.478533 0.743779
vt 0.478809 0.745593
vt 0.478280 0.741945
vt 0.486829 0.740118
vt 0.487953 0.741529
vt 0.492130 0.732766
vt 0.493850 0.733438
vt 0.493082 0.723763
vt 0.494863 0.723487
vt 0.489353 0.715494
vt 0.490785 0.714362
vt 0.482008 0.710185
vt 0.482687 0.708491
vt 0.472984 0.709240
vt 0.472732 0.707435
vt 0.464666 0.712922
vt 0.463552 0.711487
vt 0.459239 0.720303
vt 0.457559 0.719630
vt 0.458069 0.729406
vt 0.456091 0.729835
vt 0.462632 0.737235
vt 0.461408 0.738347
vt 0.478091 0.740783
vt 0.484702 0.763454
vt 0.464681 0.762861
vt 0.447261 0.752236
vt 0.502119 0.753946
vt 0.512352 0.737024
vt 0.512697 0.717314
vt 0.503156 0.700098
vt 0.486326 0.689954
vt 0.466725 0.689521
vt 0.449568 0.698813
vt 0.439363 0.715214
vt 0.439002 0.734457
vt 0.034235 0.800975
vt 0.032657 0.800807
vt 0.031707 0.798497
vt 0.033054 0.797520
vt 0.031983 0.796047
vt 0.036746 0.794669
vt 0.023775 0.961996
vt 0.021345 0.964577
vt 0.015331 0.957369
vt 0.016028 0.956075
vt 0.012268 0.952809
vt 0.013141 0.951471
vt 0.010729 0.946646
vt 0.009200 0.946641
vt 0.031101 0.800717
vt 0.030707 0.798542
vt 0.030507 0.858152
vt 0.031728 0.861747
vt 0.027755 0.861058
vt 0.028905 0.858218
vt 0.026694 0.860690
vt 0.027354 0.858127
vt 0.017288 0.878480
vt 0.015784 0.878270
vt 0.020257 0.871079
vt 0.020316 0.873556
vt 0.025535 0.864545
vt 0.024035 0.869011
vt 0.031999 0.867301
vt 0.029944 0.864584
vt 0.023739 0.952880
vt 0.021930 0.950388
vt 0.022761 0.948468
vt 0.026346 0.950177
vt 0.023235 0.946405
vt 0.023749 0.945308
vt 0.025274 0.942109
vt 0.023412 0.943097
vt 0.022221 0.946535
vt 0.021894 0.943745
vt 0.020392 0.944338
vt 0.020981 0.947347
vt 0.025986 0.882475
vt 0.026480 0.879455
vt 0.027716 0.880352
vt 0.027345 0.883285
vt 0.028560 0.880632
vt 0.028791 0.884208
vt 0.030293 0.885361
vt 0.030978 0.882338
vt 0.028712 0.878444
vt 0.030601 0.877897
vt 0.029167 0.875227
vt 0.027490 0.876541
vt 0.174862 0.963498
vt 0.176000 0.966779
vt 0.175347 0.959741
vt 0.175522 0.956968
vt 0.178858 0.888328
vt 0.178905 0.891406
vt 0.175576 0.893972
vt 0.177875 0.899048
vt 0.200339 0.900254
vt 0.200048 0.895954
vt 0.199996 0.891571
vt 0.200044 0.886381
vt 0.202738 0.970726
vt 0.201925 0.964740
vt 0.201387 0.960369
vt 0.201191 0.956067
vt 0.190530 0.963581
vt 0.190793 0.961400
vt 0.194585 0.964761
vt 0.195345 0.967031
vt 0.190907 0.959434
vt 0.194981 0.960819
vt 0.190954 0.957679
vt 0.195576 0.957448
vt 0.194498 0.890221
vt 0.194173 0.892437
vt 0.191237 0.895459
vt 0.190882 0.893261
vt 0.194810 0.896216
vt 0.191380 0.897411
vt 0.195516 0.899318
vt 0.191455 0.899128
vt 0.185345 0.963274
vt 0.185830 0.961216
vt 0.186180 0.959396
vt 0.186339 0.957747
vt 0.187185 0.895364
vt 0.187012 0.893140
vt 0.187330 0.897270
vt 0.187400 0.898937
vt 0.180294 0.964640
vt 0.181107 0.962254
vt 0.181529 0.959840
vt 0.181699 0.957723
vt 0.183316 0.893939
vt 0.183684 0.890516
vt 0.183548 0.896230
vt 0.183320 0.898704
vt 0.193209 0.874597
vt 0.193976 0.872137
vt 0.203842 0.870438
vt 0.204824 0.875272
vt 0.194586 0.869390
vt 0.202763 0.865257
vt 0.194386 0.866138
vt 0.201795 0.859897
vt 0.209586 0.983213
vt 0.209709 0.988159
vt 0.194417 0.982570
vt 0.193064 0.980680
vt 0.198839 0.797315
vt 0.199083 0.802082
vt 0.193328 0.805421
vt 0.192750 0.803761
vt 0.199251 0.807314
vt 0.193641 0.807299
vt 0.186235 0.875261
vt 0.185700 0.873211
vt 0.185683 0.869954
vt 0.186350 0.866541
vt 0.179994 0.979770
vt 0.181365 0.978401
vt 0.188064 0.805786
vt 0.188529 0.804188
vt 0.187998 0.807523
vt 0.173450 0.876541
vt 0.177660 0.873269
vt 0.177948 0.867886
vt 0.178719 0.865344
vt 0.165627 0.978171
vt 0.166900 0.975296
vt 0.182372 0.805286
vt 0.184528 0.801079
vt 0.182347 0.807856
vt 0.861672 0.313663
vt 0.861228 0.315391
vt 0.858610 0.315495
vt 0.858776 0.313807
vt 0.861293 0.317154
vt 0.858627 0.317136
vt 0.861797 0.318910
vt 0.858868 0.318809
vt 0.860736 0.410888
vt 0.862322 0.408049
vt 0.865065 0.407968
vt 0.865726 0.409733
vt 0.862196 0.406357
vt 0.864868 0.406177
vt 0.862317 0.404649
vt 0.865227 0.404377
vt 0.864942 0.312582
vt 0.865099 0.314910
vt 0.865074 0.317512
vt 0.865250 0.319998
vt 0.865726 0.409733
vt 0.868903 0.408102
vt 0.869429 0.410561
vt 0.868709 0.405547
vt 0.868558 0.403033
vt 0.868186 0.310423
vt 0.868712 0.312506
vt 0.870447 0.314172
vt 0.866978 0.316592
vt 0.872930 0.314874
vt 0.869603 0.317282
vt 0.979012 0.317830
vt 0.978203 0.319799
vt 0.975344 0.317233
vt 0.976140 0.315274
vt 0.976291 0.321184
vt 0.973435 0.318613
vt 0.973774 0.321627
vt 0.970923 0.319034
vt 0.908707 0.036421
vt 0.909370 0.034224
vt 0.912681 0.035674
vt 0.911646 0.037816
vt 0.903564 0.604263
vt 0.902760 0.602064
vt 0.905864 0.601103
vt 0.907094 0.603095
vt 0.900188 0.599493
vt 0.905426 0.599035
vt 0.915532 0.038329
vt 0.914216 0.040442
vt 0.909217 0.599196
vt 0.910875 0.601241
vt 0.908391 0.596945
vt 0.986486 0.133806
vt 0.988930 0.134466
vt 0.985747 0.136773
vt 0.983309 0.136136
vt 0.990647 0.136009
vt 0.987458 0.138311
vt 0.991188 0.138038
vt 0.987986 0.140329
vt 0.875495 0.126652
vt 0.874540 0.128411
vt 0.871732 0.128118
vt 0.872273 0.126282
vt 0.874184 0.130234
vt 0.871444 0.129874
vt 0.874320 0.132052
vt 0.871421 0.131644
vt 0.879475 0.126168
vt 0.878590 0.128681
vt 0.877860 0.131233
vt 0.877360 0.133471
vt 0.885564 0.131940
vt 0.883007 0.132417
vt 0.879896 0.129738
vt 0.882580 0.129271
vt 0.881060 0.133895
vt 0.880254 0.135901
vt 0.074939 0.061748
vt 0.080883 0.065061
vt 0.074942 0.064127
vt 0.304847 0.048342
vt 0.310348 0.045540
vt 0.310516 0.047951
vt 0.046004 0.695768
vt 0.043669 0.701093
vt 0.045748 0.693289
vt 0.040076 0.711458
vt 0.038547 0.718542
vt 0.036569 0.720793
vt 0.085964 0.293027
vt 0.088385 0.292965
vt 0.077015 0.061145
vt 0.304309 0.042707
vt 0.328644 0.264980
vt 0.323220 0.265393
vt 0.054396 0.065744
vt 0.054073 0.063349
vt 0.331077 0.044158
vt 0.331137 0.046562
vt 0.096643 0.292740
vt 0.099059 0.292691
vt 0.089788 0.076230
vt 0.086302 0.071775
vt 0.296681 0.057838
vt 0.292468 0.062781
vt 0.314834 0.267240
vt 0.310737 0.267225
vt 0.089787 0.277338
vt 0.085399 0.277460
vt 0.309224 0.289957
vt 0.306253 0.289578
vt 0.101503 0.277106
vt 0.096082 0.277171
vt 0.296859 0.289937
vt 0.293911 0.289602
vt 0.171673 0.733137
vt 0.171857 0.731889
vt 0.149303 0.765327
vt 0.156765 0.769959
vt 0.156148 0.771077
vt 0.148027 0.768139
vt 0.189008 0.783674
vt 0.188368 0.784789
vt 0.161295 0.731550
vt 0.161822 0.729149
vt 0.045416 0.709846
vt 0.044787 0.708865
vt 0.046714 0.707601
vt 0.045559 0.707945
vt 0.302175 0.022222
vt 0.075282 0.040694
vt 0.349086 0.265775
vt 0.064896 0.278417
vt 0.289075 0.066702
vt 0.096694 0.082052
vt 0.106148 0.276912
vt 0.065463 0.293669
vt 0.304918 0.267232
vt 0.330783 0.293418
vt 0.104372 0.292525
vt 0.284418 0.286568
vt 0.370752 0.018777
vt 0.376140 0.018784
vt 0.380209 0.273802
vt 0.374823 0.273846
vt 0.354642 0.292124
vt 0.378370 0.291295
vt 0.724463 0.745063
vt 0.697416 0.717578
vt 0.713284 0.701962
vt 0.724648 0.722014
vt 0.649810 0.764426
vt 0.665679 0.748810
vt 0.692726 0.776295
vt 0.669678 0.776110
vt 0.681547 0.733194
vt 0.712779 0.764930
vt 0.638631 0.721325
vt 0.638446 0.744373
vt 0.650315 0.701457
vt 0.670368 0.690093
vt 0.693416 0.690278
vt 0.756385 0.690783
vt 0.779433 0.690967
vt 0.799301 0.702651
vt 0.783432 0.718267
vt 0.735827 0.765115
vt 0.724648 0.722014
vt 0.751695 0.749499
vt 0.736332 0.702146
vt 0.767564 0.733883
vt 0.778743 0.776984
vt 0.755695 0.776799
vt 0.798796 0.765620
vt 0.810480 0.745752
vt 0.810665 0.722704
s 0
usemtl Material
f 10/1/1 6/2/1 5/3/1 9/4/1
f 14/5/1 10/1/1 9/4/1 12/6/1
f 4/7/1 14/5/1 12/6/1 3/8/1
s 1
f 60/9/2 63/10/3 662/11/4 656/12/5
s 0
f 31/13/6 30/14/6 29/15/6 32/16/6
s 1
f 51/17/7 54/18/8 668/19/9 665/20/10
f 42/21/11 45/22/12 661/23/13 658/24/14
f 33/25/15 36/26/16 666/27/17 663/28/18
s 0
f 27/29/6 31/13/6 32/16/6 28/30/6
s 1
f 406/31/11 403/32/12 675/33/13 671/34/14
f 397/35/7 394/36/8 682/37/9 680/38/10
f 388/39/2 385/40/3 679/41/4 673/42/5
f 34/43/19 37/44/20 38/45/21 35/46/22
f 35/46/22 38/45/21 36/26/16 33/25/15
f 37/44/20 40/47/23 41/48/24 38/45/21
f 38/45/21 41/48/24 39/49/25 36/26/16
f 40/47/23 43/50/26 44/51/27 41/48/24
f 41/48/24 44/51/27 42/21/11 39/49/25
f 43/50/26 46/52/28 47/53/29 44/51/27
f 44/51/27 47/53/29 45/22/12 42/21/11
f 46/52/28 49/54/30 50/55/31 47/53/29
f 47/53/29 50/55/31 48/56/32 45/22/12
f 49/54/30 52/57/33 53/58/34 50/55/31
f 50/55/31 53/58/34 51/17/7 48/56/32
f 52/57/33 55/59/35 56/60/36 53/58/34
f 53/58/34 56/60/36 54/18/8 51/17/7
f 55/59/35 58/61/37 59/62/38 56/60/36
f 56/60/36 59/62/38 57/63/39 54/18/8
f 58/61/37 61/64/40 62/65/41 59/62/38
f 59/62/38 62/65/41 60/9/2 57/63/39
f 61/64/40 64/66/42 65/67/43 62/65/41
f 62/65/41 65/67/43 63/10/3 60/9/2
f 64/66/42 67/68/44 68/69/45 65/67/43
f 65/67/43 68/69/45 66/70/46 63/10/3
f 67/68/44 34/43/19 35/46/22 68/69/45
f 68/69/45 35/46/22 33/25/15 66/70/46
f 63/10/3 66/70/46 669/71/47 662/11/4
f 34/43/19 15/72/10 16/73/9 37/44/20
f 67/68/44 26/74/48 15/72/10 34/43/19
f 37/44/20 16/73/9 17/75/49 40/47/23
f 40/47/23 17/75/49 18/76/5 43/50/26
f 43/50/26 18/76/5 19/77/4 46/52/28
f 46/52/28 19/77/4 20/78/47 49/54/30
f 49/54/30 20/78/47 21/79/18 52/57/33
f 52/57/33 21/79/18 22/80/17 55/59/35
f 55/59/35 22/80/17 23/81/50 58/61/37
f 58/61/37 23/81/50 24/82/14 61/64/40
f 61/64/40 24/82/14 25/83/13 64/66/42
f 64/66/42 25/83/13 26/74/48 67/68/44
f 69/84/51 72/85/52 74/86/53 73/87/54
f 72/85/52 76/88/55 77/89/56 74/86/53
f 70/90/57 75/91/58 77/92/56 76/93/55
f 75/91/58 79/94/59 80/95/60 77/92/56
f 71/96/61 78/97/62 80/95/60 79/94/59
f 78/98/62 73/87/54 74/86/53 80/99/60
f 74/86/53 77/89/56 80/99/60
f 85/100/63 88/101/64 90/102/65 89/103/66
f 88/101/64 92/104/67 93/105/68 90/102/65
f 86/106/69 91/107/70 93/108/68 92/109/67
f 91/107/70 95/110/71 96/111/72 93/108/68
f 87/112/73 94/113/74 96/111/72 95/110/71
f 94/113/74 89/103/66 90/102/65 96/111/72
f 90/102/65 93/105/68 96/111/72
f 109/114/75 112/115/76 114/116/77 113/117/78
f 112/115/76 116/118/79 117/119/80 114/116/77
f 110/120/81 115/121/82 117/119/80 116/118/79
f 115/121/82 119/122/83 120/123/84 117/119/80
f 111/124/85 118/125/86 120/123/84 119/122/83
f 118/125/86 113/117/78 114/116/77 120/123/84
f 114/116/77 117/119/80 120/123/84
f 121/126/87 124/127/88 126/128/89 125/129/90
f 124/127/88 128/130/91 129/131/92 126/128/89
f 122/132/93 127/133/94 129/131/92 128/130/91
f 127/133/94 131/134/95 132/135/96 129/131/92
f 123/136/97 130/137/98 132/135/96 131/134/95
f 130/137/98 125/129/90 126/128/89 132/135/96
f 126/128/89 129/131/92 132/135/96
f 85/100/63 69/84/51 73/87/54 88/101/64
f 88/101/64 73/87/54 78/98/62 92/104/67
f 92/109/67 78/97/62 71/96/61 86/106/69
f 109/114/75 105/138/99 107/139/100 112/115/76
f 112/115/76 107/139/100 108/140/101 116/118/79
f 116/118/79 108/140/101 106/141/102 110/120/81
f 121/126/87 111/124/85 119/122/83 124/127/88
f 124/127/88 119/122/83 115/121/82 128/130/91
f 128/130/91 115/121/82 110/120/81 122/132/93
f 102/142/103 123/136/97 131/134/95 104/143/104
f 104/143/104 131/134/95 127/133/94 103/144/105
f 103/144/105 127/133/94 122/132/93 101/145/106
f 86/106/69 121/126/87 125/129/90 91/107/70
f 91/107/70 125/129/90 130/137/98 95/110/71
f 95/110/71 130/137/98 123/136/97 87/112/73
f 111/124/85 71/96/61 79/94/59 118/125/86
f 118/125/86 79/94/59 75/91/58 113/117/78
f 113/117/78 75/91/58 70/90/57 109/114/75
f 98/146/107 138/147/108 140/148/109 100/149/110
f 100/149/110 140/148/109 139/150/111 99/151/112
f 99/151/112 139/150/111 137/152/113 97/153/114
f 82/154/115 134/155/116 136/156/117 84/157/118
f 84/157/118 136/156/117 135/158/119 83/159/120
f 83/159/120 135/158/119 133/160/121 81/161/122
f 194/162/123 185/163/124 187/164/125 196/165/126
f 196/165/126 187/164/125 188/166/127 195/167/128
f 195/167/128 188/166/127 186/168/129 193/169/130
f 198/170/131 205/171/132 207/172/133 200/173/134
f 200/173/134 207/172/133 208/174/135 199/175/136
f 199/175/136 208/174/135 206/176/137 197/177/138
f 190/178/139 194/162/123 196/165/126 192/179/140
f 192/179/140 196/165/126 195/167/128 191/180/141
f 191/180/141 195/167/128 193/169/130 189/181/142
f 205/171/132 209/182/143 211/183/144 207/172/133
f 207/172/133 211/183/144 212/184/145 208/174/135
f 208/174/135 212/184/145 210/185/146 206/176/137
f 182/186/147 190/178/139 192/179/140 184/187/148
f 184/187/148 192/179/140 191/180/141 183/188/149
f 183/188/149 191/180/141 189/181/142 181/189/150
f 209/182/143 201/190/151 203/191/152 211/183/144
f 211/183/144 203/191/152 204/192/153 212/184/145
f 212/184/145 204/192/153 202/193/154 210/185/146
f 162/194/155 153/195/156 155/196/157 164/197/158
f 164/197/158 155/196/157 156/198/159 163/199/160
f 163/199/160 156/198/159 154/200/161 161/201/162
f 166/202/163 173/203/164 175/204/165 168/205/166
f 168/206/166 175/207/165 176/208/167 167/209/168
f 167/209/168 176/208/167 174/210/169 165/211/170
f 158/212/171 162/194/155 164/197/158 160/213/172
f 160/213/172 164/197/158 163/199/160 159/214/173
f 159/214/173 163/199/160 161/201/162 157/215/174
f 173/203/164 177/216/175 179/217/176 175/204/165
f 175/207/165 179/218/176 180/219/177 176/208/167
f 176/208/167 180/219/177 178/220/178 174/210/169
f 150/221/179 158/212/171 160/213/172 152/222/180
f 152/222/180 160/213/172 159/214/173 151/223/181
f 151/223/181 159/214/173 157/215/174 149/224/182
f 177/216/175 169/225/183 171/226/184 179/217/176
f 179/218/176 171/227/184 172/228/185 180/219/177
f 180/219/177 172/228/185 170/229/186 178/220/178
f 169/225/183 70/90/57 76/93/55 171/226/184
f 171/227/184 76/88/55 72/85/52 172/228/185
f 172/228/185 72/85/52 69/84/51 170/229/186
f 87/112/73 150/221/179 152/222/180 94/113/74
f 94/113/74 152/222/180 151/223/181 89/103/66
f 89/103/66 151/223/181 149/224/182 85/100/63
f 197/177/138 98/146/107 100/149/110 199/175/136
f 199/175/136 100/149/110 99/151/112 200/173/134
f 200/173/134 99/151/112 97/153/114 198/170/131
f 141/230/187 154/200/161 156/198/159 143/231/188
f 143/231/188 156/198/159 155/196/157 144/232/189
f 144/232/189 155/196/157 153/195/156 142/233/190
f 101/145/106 202/193/154 204/192/153 103/144/105
f 103/144/105 204/192/153 203/191/152 104/143/104
f 104/143/104 203/191/152 201/190/151 102/142/103
f 145/234/191 166/202/163 168/205/166 147/235/192
f 147/236/192 168/206/166 167/209/168 148/237/193
f 148/237/193 167/209/168 165/211/170 146/238/194
f 81/161/122 186/168/129 188/166/127 83/159/120
f 83/159/120 188/166/127 187/164/125 84/157/118
f 84/157/118 187/164/125 185/163/124 82/154/115
f 181/189/150 106/141/102 108/140/101 183/188/149
f 183/188/149 108/140/101 107/139/100 184/187/148
f 184/187/148 107/139/100 105/138/99 182/186/147
f 69/84/51 85/100/63 149/224/182 170/229/186
f 86/106/69 71/96/61 111/124/85 121/126/87
f 70/90/57 169/225/183 105/138/99 109/114/75
f 81/161/122 98/146/107 197/177/138 186/168/129
f 98/146/107 81/161/122 133/160/121 138/147/108
f 185/163/124 166/202/163 82/154/115
f 82/154/115 166/202/163 145/234/191 134/155/116
f 150/221/179 87/112/73 123/136/97 102/142/103
f 97/153/114 153/195/156 198/170/131
f 153/195/156 97/153/114 137/152/113 142/233/190
f 106/141/102 181/189/150 202/193/154 101/145/106
f 110/120/81 106/141/102 101/145/106 122/132/93
f 201/190/151 150/221/179 102/142/103
f 169/225/183 182/186/147 105/138/99
f 141/230/187 146/238/194 165/211/170 154/200/161
f 209/182/143 158/212/171 150/221/179 201/190/151
f 157/215/174 178/220/178 170/229/186 149/224/182
f 198/170/131 153/195/156 162/194/155 205/171/132
f 154/200/161 165/211/170 174/210/169 161/201/162
f 205/171/132 162/194/155 158/212/171 209/182/143
f 161/201/162 174/210/169 178/220/178 157/215/174
f 194/162/123 173/203/164 166/202/163 185/163/124
f 182/186/147 169/225/183 177/216/175 190/178/139
f 190/178/139 177/216/175 173/203/164 194/162/123
f 189/181/142 210/185/146 202/193/154 181/189/150
f 186/168/129 197/177/138 206/176/137 193/169/130
f 193/169/130 206/176/137 210/185/146 189/181/142
f 274/239/195 265/240/196 267/241/197 276/242/198
f 276/242/198 267/241/197 268/243/199 275/244/200
f 275/244/200 268/243/199 266/245/201 273/246/202
f 246/247/203 253/248/204 255/249/205 248/250/206
f 248/250/206 255/249/205 256/251/207 247/252/208
f 247/252/208 256/251/207 254/253/209 245/254/210
f 270/255/211 274/239/195 276/242/198 272/256/212
f 272/256/212 276/242/198 275/244/200 271/257/213
f 271/257/213 275/244/200 273/246/202 269/258/214
f 253/248/204 257/259/215 259/260/216 255/249/205
f 255/249/205 259/260/216 260/261/217 256/251/207
f 256/251/207 260/261/217 258/262/218 254/253/209
f 261/263/219 270/255/211 272/256/212 263/264/220
f 263/264/220 272/256/212 271/265/213 264/266/221
f 264/266/221 271/265/213 269/267/214 262/268/222
f 257/269/215 250/270/223 252/271/224 259/272/216
f 259/272/216 252/271/224 251/273/225 260/274/217
f 260/274/217 251/273/225 249/275/226 258/276/218
f 234/277/227 241/278/228 243/279/229 236/280/230
f 236/281/230 243/282/229 244/283/231 235/284/232
f 235/284/232 244/283/231 242/285/233 233/286/234
f 241/278/228 237/287/235 239/288/236 243/279/229
f 243/282/229 239/289/236 240/290/237 244/283/231
f 244/283/231 240/290/237 238/291/238 242/285/233
f 237/292/235 230/293/239 232/294/240 239/295/236
f 239/295/236 232/294/240 231/296/241 240/297/237
f 240/297/237 231/296/241 229/298/242 238/299/238
f 290/300/243 281/301/244 283/302/245 292/303/246
f 292/303/246 283/302/245 284/304/247 291/305/248
f 291/305/248 284/304/247 282/306/249 289/307/250
f 286/308/251 290/300/243 292/303/246 288/309/252
f 288/309/252 292/303/246 291/305/248 287/310/253
f 287/310/253 291/305/248 289/307/250 285/311/254
f 277/312/255 286/313/251 288/314/252 279/315/256
f 279/315/256 288/314/252 287/310/253 280/316/257
f 280/316/257 287/310/253 285/311/254 278/317/258
f 245/254/210 218/318/194 220/319/193 247/252/208
f 247/252/208 220/319/193 219/320/192 248/250/206
f 248/250/206 219/320/192 217/321/191 246/247/203
f 213/322/259 234/277/227 236/280/230 215/323/260
f 215/324/260 236/281/230 235/284/232 216/325/261
f 216/325/261 235/284/232 233/286/234 214/326/262
f 225/327/263 282/306/249 284/304/247 227/328/264
f 227/328/264 284/304/247 283/302/245 228/329/265
f 228/329/265 283/302/245 281/301/244 226/330/266
f 265/240/196 222/331/190 224/332/189 267/241/197
f 267/241/197 224/332/189 223/333/188 268/243/199
f 268/243/199 223/333/188 221/334/187 266/245/201
f 217/321/191 214/326/262 233/286/234 246/247/203
f 226/330/266 281/301/244 234/277/227 213/322/259
f 266/245/201 221/334/187 218/318/194 245/254/210
f 222/331/190 265/240/196 282/306/249 225/327/263
f 237/292/235 286/313/251 277/312/255 230/293/239
f 257/269/215 238/299/238 229/298/242 250/270/223
f 249/275/226 230/293/239 277/312/255 262/268/222
f 246/247/203 233/286/234 242/285/233 253/248/204
f 234/277/227 281/301/244 290/300/243 241/278/228
f 241/278/228 290/300/243 286/308/251 237/287/235
f 253/248/204 242/285/233 238/291/238 257/259/215
f 266/245/201 245/254/210 254/253/209 273/246/202
f 269/267/214 258/276/218 249/275/226 262/268/222
f 273/246/202 254/253/209 258/262/218 269/258/214
f 285/311/254 270/255/211 261/263/219 278/317/258
f 282/306/249 265/240/196 274/239/195 289/307/250
f 289/307/250 274/239/195 270/255/211 285/311/254
s 0
f 305/335/267 306/336/267 307/337/267
f 308/338/268 309/339/268 310/340/268
f 335/341/269 337/342/269 336/343/269
f 338/344/270 340/345/270 339/346/270
f 324/347/271 300/348/271 299/349/271 323/350/271
f 307/337/272 308/338/272 310/351/272 305/352/272
f 318/353/273 309/339/273 308/338/273 317/354/273
f 305/335/274 296/355/274 295/356/274 306/336/274
f 293/357/275 310/340/275 309/339/275 294/358/275
f 326/359/276 312/360/276 311/361/276 325/362/276
f 298/363/277 301/364/277 302/365/277 297/366/277
f 322/367/278 302/365/278 301/364/278 321/368/278
f 306/336/279 315/369/279 316/370/279 307/337/279
f 328/371/280 318/353/280 317/354/280 327/372/280
f 297/366/281 319/373/281 320/374/281 298/363/281
f 330/375/282 322/367/282 321/368/282 329/376/282
f 315/369/283 324/347/283 323/350/283 316/370/283
f 319/373/284 326/359/284 325/362/284 320/374/284
f 303/377/285 328/371/285 327/372/285 304/378/285
f 313/379/286 330/375/286 329/376/286 314/380/286
f 341/381/287 342/382/287 352/383/287 351/384/287
f 346/385/288 345/386/288 350/387/288 349/388/288
f 349/388/288 350/387/288 343/389/288 344/390/288
f 348/391/287 347/392/287 337/342/287 335/341/287
f 351/384/289 352/383/289 347/392/289 348/391/289
f 340/345/290 338/344/290 336/343/290 337/342/290
f 339/346/288 340/345/288 345/386/288 346/385/288
f 331/393/275 332/394/275 338/344/275 339/346/275
f 335/341/274 336/343/274 333/395/274 334/396/274
f 293/397/14 296/398/14 305/352/14 310/351/14
f 8/399/18 294/358/18 309/339/18 318/353/18
f 295/356/10 7/400/10 315/369/10 306/336/10
f 301/364/5 298/363/5 5/401/5 6/402/5
f 298/363/18 320/374/18 9/403/18 5/401/18
f 297/366/1 302/365/1 308/338/1 307/337/1
f 319/373/1 297/366/1 307/337/1 316/370/1
f 312/360/1 326/359/1 323/350/1 299/349/1
f 11/404/10 2/405/10 300/348/10 324/347/10
f 302/365/1 322/367/1 317/354/1 308/338/1
f 321/368/10 301/364/10 6/402/10 10/406/10
f 1/407/18 13/408/18 328/371/18 303/377/18
f 330/375/1 313/379/1 304/378/1 327/372/1
f 325/362/18 311/361/18 3/409/18 12/410/18
f 314/380/10 329/376/10 14/411/10 4/412/10
f 7/400/10 11/404/10 324/347/10 315/369/10
f 326/359/1 319/373/1 316/370/1 323/350/1
f 13/408/291 8/399/291 318/353/291 328/371/291
f 322/367/1 330/375/1 327/372/1 317/354/1
f 320/374/18 325/362/18 12/410/18 9/403/18
f 329/376/292 321/368/292 10/406/292 14/411/292
f 30/14/6 334/396/6 333/395/6 332/394/6 331/393/6 29/15/6
f 346/385/18 29/15/18 331/393/18 339/346/18
f 333/395/14 336/343/14 338/344/14 332/394/14
f 335/341/10 334/396/10 30/14/10 348/391/10
f 337/413/1 347/414/1 345/415/1 340/416/1
f 352/417/1 342/418/1 343/419/1 350/420/1
f 351/384/10 31/13/10 27/29/10 341/381/10
f 344/390/18 28/30/18 32/16/18 349/388/18
f 349/388/18 32/16/18 29/15/18 346/385/18
f 347/414/1 352/417/1 350/420/1 345/415/1
f 348/391/293 30/14/293 31/13/293 351/384/293
s 1
f 262/268/222 277/312/255 279/315/256 264/266/221
f 264/266/221 279/315/256 280/316/257 263/264/220
f 263/264/220 280/316/257 278/317/258 261/263/219
f 230/293/239 249/275/226 251/273/225 232/294/240
f 232/294/240 251/273/225 252/271/224 231/296/241
f 231/296/241 252/271/224 250/270/223 229/298/242
s 0
f 358/421/1 357/422/1 353/423/1 354/424/1
f 362/425/1 360/426/1 357/422/1 358/421/1
f 4/7/1 3/8/1 360/426/1 362/425/1
s 1
f 54/18/8 57/63/39 660/427/49 668/19/9
s 0
f 377/428/6 378/429/6 375/430/6 376/431/6
s 1
f 45/22/12 48/56/32 667/432/48 661/23/13
f 379/433/15 412/434/16 684/435/17 678/436/18
f 36/26/16 39/49/25 664/437/50 666/27/17
s 0
f 27/29/6 28/30/6 378/429/6 377/428/6
s 1
f 409/438/25 406/31/11 671/34/14 677/439/50
f 400/440/32 397/35/7 680/38/10 683/441/48
f 391/442/39 388/39/2 673/42/5 676/443/49
f 380/444/19 381/445/22 384/446/45 383/447/44
f 381/445/22 379/433/15 382/448/46 384/446/45
f 383/447/44 384/446/45 387/449/43 386/450/42
f 384/446/45 382/448/46 385/40/3 387/449/43
f 386/450/42 387/449/43 390/451/41 389/452/40
f 387/449/43 385/40/3 388/39/2 390/451/41
f 389/452/40 390/451/41 393/453/38 392/454/37
f 390/451/41 388/39/2 391/442/39 393/453/38
f 392/454/37 393/453/38 396/455/36 395/456/35
f 393/453/38 391/442/39 394/36/8 396/455/36
f 395/456/35 396/455/36 399/457/34 398/458/33
f 396/455/36 394/36/8 397/35/7 399/457/34
f 398/458/33 399/457/34 402/459/31 401/460/30
f 399/457/34 397/35/7 400/440/32 402/459/31
f 401/460/30 402/459/31 405/461/29 404/462/28
f 402/459/31 400/440/32 403/32/12 405/461/29
f 404/462/28 405/461/29 408/463/27 407/464/26
f 405/461/29 403/32/12 406/31/11 408/463/27
f 407/464/26 408/463/27 411/465/24 410/466/23
f 408/463/27 406/31/11 409/438/25 411/465/24
f 410/466/23 411/465/24 414/467/21 413/468/20
f 411/465/24 409/438/25 412/434/16 414/467/21
f 413/468/20 414/467/21 381/445/22 380/444/19
f 414/467/21 412/434/16 379/433/15 381/445/22
f 382/448/46 379/433/15 678/436/18 681/469/47
f 380/444/19 383/447/44 364/470/48 363/471/10
f 413/468/20 380/444/19 363/471/10 374/472/9
f 383/447/44 386/450/42 365/473/13 364/470/48
f 386/450/42 389/452/40 366/474/14 365/473/13
f 389/452/40 392/454/37 367/475/50 366/474/14
f 392/454/37 395/456/35 368/476/17 367/475/50
f 395/456/35 398/458/33 369/477/18 368/476/17
f 398/458/33 401/460/30 370/478/47 369/477/18
f 401/460/30 404/462/28 371/479/4 370/478/47
f 404/462/28 407/464/26 372/480/5 371/479/4
f 407/464/26 410/466/23 373/481/49 372/480/5
f 410/466/23 413/468/20 374/472/9 373/481/49
f 415/482/294 419/483/295 420/484/296 418/485/297
f 418/485/297 420/484/296 423/486/298 422/487/299
f 416/488/300 422/489/299 423/490/298 421/491/301
f 421/491/301 423/490/298 426/492/302 425/493/303
f 417/494/304 425/493/303 426/492/302 424/495/305
f 424/496/305 426/497/302 420/484/296 419/483/295
f 420/484/296 426/497/302 423/486/298
f 431/498/306 435/499/307 436/500/308 434/501/309
f 434/501/309 436/500/308 439/502/310 438/503/311
f 432/504/312 438/505/311 439/506/310 437/507/313
f 437/507/313 439/506/310 442/508/314 441/509/315
f 433/510/316 441/509/315 442/508/314 440/511/317
f 440/511/317 442/508/314 436/500/308 435/499/307
f 436/500/308 442/508/314 439/502/310
f 455/512/318 459/513/319 460/514/320 458/515/321
f 458/515/321 460/514/320 463/516/322 462/517/323
f 456/518/324 462/517/323 463/516/322 461/519/325
f 461/519/325 463/516/322 466/520/326 465/521/327
f 457/522/328 465/521/327 466/520/326 464/523/329
f 464/523/329 466/520/326 460/514/320 459/513/319
f 460/514/320 466/520/326 463/516/322
f 467/524/330 471/525/331 472/526/332 470/527/333
f 470/527/333 472/526/332 475/528/334 474/529/335
f 468/530/336 474/529/335 475/528/334 473/531/337
f 473/531/337 475/528/334 478/532/338 477/533/339
f 469/534/340 477/533/339 478/532/338 476/535/341
f 476/535/341 478/532/338 472/526/332 471/525/331
f 472/526/332 478/532/338 475/528/334
f 431/498/306 434/501/309 419/483/295 415/482/294
f 434/501/309 438/503/311 424/496/305 419/483/295
f 438/505/311 432/504/312 417/494/304 424/495/305
f 455/512/318 458/515/321 453/536/342 451/537/343
f 458/515/321 462/517/323 454/538/344 453/536/342
f 462/517/323 456/518/324 452/539/345 454/538/344
f 467/524/330 470/527/333 465/521/327 457/522/328
f 470/527/333 474/529/335 461/519/325 465/521/327
f 474/529/335 468/530/336 456/518/324 461/519/325
f 448/540/346 450/541/347 477/533/339 469/534/340
f 450/541/347 449/542/348 473/531/337 477/533/339
f 449/542/348 447/543/349 468/530/336 473/531/337
f 432/504/312 437/507/313 471/525/331 467/524/330
f 437/507/313 441/509/315 476/535/341 471/525/331
f 441/509/315 433/510/316 469/534/340 476/535/341
f 457/522/328 464/523/329 425/493/303 417/494/304
f 464/523/329 459/513/319 421/491/301 425/493/303
f 459/513/319 455/512/318 416/488/300 421/491/301
f 444/544/350 446/545/351 140/148/109 138/147/108
f 446/545/351 445/546/352 139/150/111 140/148/109
f 445/546/352 443/547/353 137/152/113 139/150/111
f 428/548/354 430/549/355 136/156/117 134/155/116
f 430/549/355 429/550/356 135/158/119 136/156/117
f 429/550/356 427/551/357 133/160/121 135/158/119
f 524/552/358 526/553/359 517/554/360 515/555/361
f 526/553/359 525/556/362 518/557/363 517/554/360
f 525/556/362 523/558/364 516/559/365 518/557/363
f 528/560/366 530/561/367 537/562/368 535/563/369
f 530/561/367 529/564/370 538/565/371 537/562/368
f 529/564/370 527/566/372 536/567/373 538/565/371
f 520/568/374 522/569/375 526/553/359 524/552/358
f 522/569/375 521/570/376 525/556/362 526/553/359
f 521/570/376 519/571/377 523/558/364 525/556/362
f 535/563/369 537/562/368 541/572/378 539/573/379
f 537/562/368 538/565/371 542/574/380 541/572/378
f 538/565/371 536/567/373 540/575/381 542/574/380
f 512/576/382 514/577/383 522/569/375 520/568/374
f 514/577/383 513/578/384 521/570/376 522/569/375
f 513/578/384 511/579/385 519/571/377 521/570/376
f 539/573/379 541/572/378 533/580/386 531/581/387
f 541/572/378 542/574/380 534/582/388 533/580/386
f 542/574/380 540/575/381 532/583/389 534/582/388
f 492/584/390 494/585/391 485/586/392 483/587/393
f 494/585/391 493/588/394 486/589/395 485/586/392
f 493/588/394 491/590/396 484/591/397 486/589/395
f 496/592/398 498/593/399 505/594/400 503/595/401
f 498/596/399 497/597/402 506/598/403 505/599/400
f 497/597/402 495/600/404 504/601/405 506/598/403
f 488/602/406 490/603/407 494/585/391 492/584/390
f 490/603/407 489/604/408 493/588/394 494/585/391
f 489/604/408 487/605/409 491/590/396 493/588/394
f 503/595/401 505/594/400 509/606/410 507/607/411
f 505/599/400 506/598/403 510/608/412 509/609/410
f 506/598/403 504/601/405 508/610/413 510/608/412
f 480/611/414 482/612/415 490/603/407 488/602/406
f 482/612/415 481/613/416 489/604/408 490/603/407
f 481/613/416 479/614/417 487/605/409 489/604/408
f 507/607/411 509/606/410 501/615/418 499/616/419
f 509/609/410 510/608/412 502/617/420 501/618/418
f 510/608/412 508/610/413 500/619/421 502/617/420
f 499/616/419 501/615/418 422/489/299 416/488/300
f 501/618/418 502/617/420 418/485/297 422/487/299
f 502/617/420 500/619/421 415/482/294 418/485/297
f 433/510/316 440/511/317 482/612/415 480/611/414
f 440/511/317 435/499/307 481/613/416 482/612/415
f 435/499/307 431/498/306 479/614/417 481/613/416
f 527/566/372 529/564/370 446/545/351 444/544/350
f 529/564/370 530/561/367 445/546/352 446/545/351
f 530/561/367 528/560/366 443/547/353 445/546/352
f 141/230/187 143/231/188 486/589/395 484/591/397
f 143/231/188 144/232/189 485/586/392 486/589/395
f 144/232/189 142/233/190 483/587/393 485/586/392
f 447/543/349 449/542/348 534/582/388 532/583/389
f 449/542/348 450/541/347 533/580/386 534/582/388
f 450/541/347 448/540/346 531/581/387 533/580/386
f 145/234/191 147/235/192 498/593/399 496/592/398
f 147/236/192 148/237/193 497/597/402 498/596/399
f 148/237/193 146/238/194 495/600/404 497/597/402
f 427/551/357 429/550/356 518/557/363 516/559/365
f 429/550/356 430/549/355 517/554/360 518/557/363
f 430/549/355 428/548/354 515/555/361 517/554/360
f 511/579/385 513/578/384 454/538/344 452/539/345
f 513/578/384 514/577/383 453/536/342 454/538/344
f 514/577/383 512/576/382 451/537/343 453/536/342
f 415/482/294 500/619/421 479/614/417 431/498/306
f 432/504/312 467/524/330 457/522/328 417/494/304
f 416/488/300 455/512/318 451/537/343 499/616/419
f 427/551/357 516/559/365 527/566/372 444/544/350
f 444/544/350 138/147/108 133/160/121 427/551/357
f 515/555/361 428/548/354 496/592/398
f 428/548/354 134/155/116 145/234/191 496/592/398
f 480/611/414 448/540/346 469/534/340 433/510/316
f 443/547/353 528/560/366 483/587/393
f 483/587/393 142/233/190 137/152/113 443/547/353
f 452/539/345 447/543/349 532/583/389 511/579/385
f 456/518/324 468/530/336 447/543/349 452/539/345
f 531/581/387 448/540/346 480/611/414
f 499/616/419 451/537/343 512/576/382
f 141/230/187 484/591/397 495/600/404 146/238/194
f 539/573/379 531/581/387 480/611/414 488/602/406
f 487/605/409 479/614/417 500/619/421 508/610/413
f 528/560/366 535/563/369 492/584/390 483/587/393
f 484/591/397 491/590/396 504/601/405 495/600/404
f 535/563/369 539/573/379 488/602/406 492/584/390
f 491/590/396 487/605/409 508/610/413 504/601/405
f 524/552/358 515/555/361 496/592/398 503/595/401
f 512/576/382 520/568/374 507/607/411 499/616/419
f 520/568/374 524/552/358 503/595/401 507/607/411
f 519/571/377 511/579/385 532/583/389 540/575/381
f 516/559/365 523/558/364 536/567/373 527/566/372
f 523/558/364 519/571/377 540/575/381 536/567/373
f 588/620/422 590/621/423 581/622/424 579/623/425
f 590/621/423 589/624/426 582/625/427 581/622/424
f 589/624/426 587/626/428 580/627/429 582/625/427
f 560/628/430 562/629/431 569/630/432 567/631/433
f 562/629/431 561/632/434 570/633/435 569/630/432
f 561/632/434 559/634/436 568/635/437 570/633/435
f 584/636/438 586/637/439 590/621/423 588/620/422
f 586/637/439 585/638/440 589/624/426 590/621/423
f 585/638/440 583/639/441 587/626/428 589/624/426
f 567/640/433 569/630/432 573/641/442 571/642/443
f 569/630/432 570/633/435 574/643/444 573/641/442
f 570/633/435 568/635/437 572/644/445 574/643/444
f 575/645/446 577/646/447 586/637/439 584/636/438
f 577/646/447 578/647/448 585/648/440 586/637/439
f 578/647/448 576/649/449 583/650/441 585/648/440
f 571/651/443 573/652/442 566/653/450 564/654/451
f 573/652/442 574/655/444 565/656/452 566/653/450
f 574/655/444 572/657/445 563/658/453 565/656/452
f 548/659/454 550/660/455 557/661/456 555/662/457
f 550/663/455 549/664/458 558/665/459 557/666/456
f 549/664/458 547/667/460 556/668/461 558/665/459
f 555/662/457 557/661/456 553/669/462 551/670/463
f 557/666/456 558/665/459 554/671/464 553/672/462
f 558/665/459 556/668/461 552/673/465 554/671/464
f 551/674/463 553/675/462 546/676/466 544/677/467
f 553/675/462 554/678/464 545/679/468 546/676/466
f 554/678/464 552/680/465 543/681/469 545/679/468
f 604/682/470 606/683/471 597/684/472 595/685/473
f 606/683/471 605/686/474 598/687/475 597/684/472
f 605/686/474 603/688/476 596/689/477 598/687/475
f 600/690/478 602/691/479 606/683/471 604/682/470
f 602/691/479 601/692/480 605/686/474 606/683/471
f 601/692/480 599/693/481 603/688/476 605/686/474
f 591/694/482 593/695/483 602/696/479 600/697/478
f 593/695/483 594/698/484 601/692/480 602/696/479
f 594/698/484 592/699/485 599/693/481 601/692/480
f 559/634/436 561/632/434 220/319/193 218/318/194
f 561/632/434 562/629/431 219/320/192 220/319/193
f 562/629/431 560/628/430 217/321/191 219/320/192
f 213/322/259 215/323/260 550/660/455 548/659/454
f 215/324/260 216/325/261 549/664/458 550/663/455
f 216/325/261 214/326/262 547/667/460 549/664/458
f 225/327/263 227/328/264 598/687/475 596/689/477
f 227/328/264 228/329/265 597/684/472 598/687/475
f 228/329/265 226/330/266 595/685/473 597/684/472
f 579/623/425 581/622/424 224/332/189 222/331/190
f 581/622/424 582/625/427 223/333/188 224/332/189
f 582/625/427 580/627/429 221/334/187 223/333/188
f 217/321/191 560/628/430 547/667/460 214/326/262
f 226/330/266 213/322/259 548/659/454 595/685/473
f 580/627/429 559/634/436 218/318/194 221/334/187
f 222/331/190 225/327/263 596/689/477 579/623/425
f 551/674/463 544/677/467 591/694/482 600/697/478
f 571/651/443 564/654/451 543/681/469 552/680/465
f 563/658/453 576/649/449 591/694/482 544/677/467
f 560/628/430 567/631/433 556/668/461 547/667/460
f 548/659/454 555/662/457 604/682/470 595/685/473
f 555/662/457 551/670/463 600/690/478 604/682/470
f 567/640/433 571/642/443 552/673/465 556/668/461
f 580/627/429 587/626/428 568/635/437 559/634/436
f 583/650/441 576/649/449 563/658/453 572/657/445
f 587/626/428 583/639/441 572/644/445 568/635/437
f 599/693/481 592/699/485 575/645/446 584/636/438
f 596/689/477 603/688/476 588/620/422 579/623/425
f 603/688/476 599/693/481 584/636/438 588/620/422
s 0
f 615/700/486 617/701/486 616/702/486
f 618/703/487 620/704/487 619/705/487
f 641/706/488 642/707/488 643/708/488
f 644/709/489 645/710/489 646/711/489
f 630/712/271 629/713/271 299/349/271 300/348/271
f 617/701/490 615/714/490 620/715/490 618/703/490
f 624/716/273 623/717/273 618/703/273 619/705/273
f 615/700/491 616/702/491 609/718/491 610/719/491
f 607/720/492 608/721/492 619/705/492 620/704/492
f 632/722/276 631/723/276 311/361/276 312/360/276
f 612/724/493 611/725/493 614/726/493 613/727/493
f 628/728/278 627/729/278 613/727/278 614/726/278
f 616/702/279 617/701/279 622/730/279 621/731/279
f 634/732/494 633/733/494 623/717/494 624/716/494
f 611/725/281 612/724/281 626/734/281 625/735/281
f 636/736/495 635/737/495 627/729/495 628/728/495
f 621/731/496 622/730/496 629/713/496 630/712/496
f 625/735/497 626/734/497 631/723/497 632/722/497
f 303/377/285 304/378/285 633/733/285 634/732/285
f 313/379/286 314/380/286 635/737/286 636/736/286
f 341/381/287 653/738/287 654/739/287 342/382/287
f 648/740/288 651/741/288 652/742/288 647/743/288
f 651/741/288 344/744/288 343/745/288 652/742/288
f 650/746/287 641/706/287 643/708/287 649/747/287
f 653/738/498 650/746/498 649/747/498 654/739/498
f 646/711/499 643/708/499 642/707/499 644/709/499
f 645/710/288 648/740/288 647/743/288 646/711/288
f 637/748/492 645/710/492 644/709/492 638/749/492
f 641/706/491 640/750/491 639/751/491 642/707/491
f 607/752/5 620/715/5 615/714/5 610/753/5
f 356/754/18 624/716/18 619/705/18 608/721/18
f 609/718/10 616/702/10 621/731/10 355/755/10
f 613/727/14 354/756/14 353/757/14 612/724/14
f 612/724/18 353/757/18 357/758/18 626/734/18
f 611/725/1 617/701/1 618/703/1 614/726/1
f 625/735/1 622/730/1 617/701/1 611/725/1
f 312/360/1 299/349/1 629/713/1 632/722/1
f 359/759/10 630/712/10 300/348/10 2/405/10
f 614/726/1 618/703/1 623/717/1 628/728/1
f 627/729/10 358/760/10 354/756/10 613/727/10
f 1/407/18 303/377/18 634/732/18 361/761/18
f 636/736/1 633/733/1 304/378/1 313/379/1
f 631/723/18 360/762/18 3/409/18 311/361/18
f 314/380/10 4/412/10 362/763/10 635/737/10
f 355/755/10 621/731/10 630/712/10 359/759/10
f 632/722/1 629/713/1 622/730/1 625/735/1
f 361/761/500 634/732/500 624/716/500 356/754/500
f 628/728/1 623/717/1 633/733/1 636/736/1
f 626/734/18 357/758/18 360/762/18 631/723/18
f 635/737/501 362/763/501 358/760/501 627/729/501
f 376/431/6 375/430/6 637/748/6 638/749/6 639/751/6 640/750/6
f 648/740/18 645/710/18 637/748/18 375/430/18
f 639/751/5 638/749/5 644/709/5 642/707/5
f 641/706/10 650/746/10 376/431/10 640/750/10
f 643/764/1 646/765/1 647/766/1 649/767/1
f 654/768/1 652/769/1 343/419/1 342/418/1
f 653/738/10 341/381/10 27/29/10 377/428/10
f 344/744/18 651/741/18 378/429/18 28/30/18
f 651/741/18 648/740/18 375/430/18 378/429/18
f 649/767/1 647/766/1 652/769/1 654/768/1
f 650/746/502 653/738/502 377/428/502 376/431/502
s 1
f 576/649/449 578/647/448 593/695/483 591/694/482
f 578/647/448 577/646/447 594/698/484 593/695/483
f 577/646/447 575/645/446 592/699/485 594/698/484
f 544/677/467 546/676/466 565/656/452 563/658/453
f 546/676/466 545/679/468 566/653/450 565/656/452
f 545/679/468 543/681/469 564/654/451 566/653/450
s 0
f 664/770/1 657/771/1 663/772/1 666/773/1
f 665/774/1 659/775/1 661/776/1 667/777/1
f 661/776/1 659/775/1 655/778/1 658/779/1
f 660/780/1 659/775/1 665/774/1 668/781/1
f 658/779/1 655/778/1 657/771/1 664/770/1
f 656/782/1 655/778/1 659/775/1 660/780/1
f 662/783/1 657/771/1 655/778/1 656/782/1
f 663/772/1 657/771/1 662/783/1 669/784/1
f 679/785/1 681/786/1 678/787/1 672/788/1
f 680/789/1 682/770/1 676/790/1 674/791/1
f 676/790/1 673/792/1 670/793/1 674/791/1
f 675/794/1 683/795/1 680/789/1 674/791/1
f 673/792/1 679/785/1 672/788/1 670/793/1
f 671/796/1 675/794/1 674/791/1 670/793/1
f 677/797/1 671/796/1 670/793/1 672/788/1
f 678/787/1 684/798/1 677/797/1 672/788/1
s 1
f 66/70/46 33/25/15 663/28/18 669/71/47
f 385/40/3 382/448/46 681/469/47 679/41/4
f 394/36/8 391/442/39 676/443/49 682/37/9
f 403/32/12 400/440/32 683/441/48 675/33/13
f 412/434/16 409/438/25 677/439/50 684/435/17
f 39/49/25 42/21/11 658/24/14 664/437/50
f 48/56/32 51/17/7 665/20/10 667/432/48
f 57/63/39 60/9/2 656/12/5 660/427/49
o Radio.002
v 1.110561 1.078332 0.247723
v 1.243889 1.440127 0.335060
v 1.148074 1.062955 0.255356
v 1.276778 1.426646 0.341752
v 1.175535 1.047237 0.281828
v 1.300853 1.412866 0.364960
v 1.185587 1.035390 0.320045
v 1.309665 1.402479 0.398466
v 1.175536 1.030587 0.359767
v 1.300853 1.398269 0.433290
v 1.148074 1.034116 0.390350
v 1.276778 1.401363 0.460103
v 1.110561 1.045032 0.403601
v 1.243890 1.410933 0.471720
v 1.073049 1.060409 0.395967
v 1.211002 1.424414 0.465028
v 1.045587 1.076127 0.369496
v 1.186926 1.438194 0.441820
v 1.035536 1.087974 0.331279
v 1.178114 1.448581 0.408314
v 1.045587 1.092777 0.291557
v 1.186926 1.452791 0.373490
v 1.073049 1.089247 0.260973
v 1.211002 1.449697 0.346677
v 1.243889 1.435714 0.355717
v 1.266835 1.426309 0.360386
v 1.283632 1.416694 0.376578
v 1.289781 1.409448 0.399954
v 1.283632 1.406510 0.424251
v 1.266835 1.408669 0.442958
v 1.243890 1.415346 0.451063
v 1.220944 1.424751 0.446394
v 1.204147 1.434366 0.430202
v 1.197998 1.441612 0.406826
v 1.204147 1.444550 0.382529
v 1.220944 1.442391 0.363822
v 1.313902 1.626776 0.396533
v 1.336848 1.617370 0.401202
v 1.353645 1.607756 0.417394
v 1.359793 1.600509 0.440771
v 1.353645 1.597572 0.465067
v 1.336848 1.599730 0.483774
v 1.313902 1.606407 0.491879
v 1.290956 1.615813 0.487210
v 1.274159 1.625427 0.471018
v 1.268011 1.632674 0.447642
v 1.274159 1.635611 0.423345
v 1.290956 1.633453 0.404638
v 1.313902 1.623854 0.410212
v 1.330264 1.617147 0.413541
v 1.342242 1.610291 0.425087
v 1.346626 1.605124 0.441756
v 1.342242 1.603029 0.459082
v 1.330264 1.604568 0.472421
v 1.313902 1.609329 0.478201
v 1.297540 1.616036 0.474871
v 1.285563 1.622892 0.463325
v 1.281178 1.628060 0.446656
v 1.285563 1.630154 0.429331
v 1.297540 1.628615 0.415991
v 1.421474 1.917414 0.472925
v 1.437836 1.910707 0.476254
v 1.449814 1.903851 0.487800
v 1.454198 1.898684 0.504469
v 1.449814 1.896589 0.521794
v 1.437836 1.898129 0.535134
v 1.421474 1.902890 0.540913
v 1.405112 1.909596 0.537584
v 1.393134 1.916452 0.526038
v 1.388750 1.921620 0.509369
v 1.393134 1.923714 0.492043
v 1.405112 1.922175 0.478704
v 1.421474 1.914107 0.488402
v 1.430386 1.910454 0.490216
v 1.436910 1.906720 0.496505
v 1.439298 1.903905 0.505584
v 1.436910 1.902764 0.515022
v 1.430386 1.903603 0.522288
v 1.421474 1.906196 0.525436
v 1.412562 1.909849 0.523622
v 1.406038 1.913584 0.517333
v 1.403650 1.916398 0.508253
v 1.406038 1.917539 0.498816
v 1.412562 1.916701 0.491550
v 1.691924 2.652156 0.646070
v 1.700836 2.648503 0.647884
v 1.707360 2.644769 0.654173
v 1.709748 2.641954 0.663253
v 1.707360 2.640813 0.672690
v 1.700836 2.641652 0.679956
v 1.691924 2.644245 0.683104
v 1.683011 2.647898 0.681290
v 1.676487 2.651633 0.675001
v 1.674099 2.654447 0.665922
v 1.676487 2.655588 0.656484
v 1.683011 2.654750 0.649218
vn 0.0084 0.2317 -0.9727
vn 0.4789 0.0388 -0.8770
vn 0.8234 -0.1583 -0.5449
vn 0.9495 -0.3069 -0.0656
vn 0.8234 -0.3672 0.4327
vn 0.4789 -0.3229 0.8163
vn 0.0084 -0.1860 0.9825
vn -0.4622 0.0069 0.8868
vn -0.8066 0.2041 0.5547
vn -0.9327 0.3527 0.0753
vn -0.8066 0.4129 -0.4229
vn 0.3373 0.9206 0.1967
vn -0.4622 0.3686 -0.8065
vn 0.8153 -0.3902 0.4279
vn 0.9414 -0.3299 -0.0705
vn -0.4707 0.3459 -0.8117
vn -0.8153 0.3902 -0.4279
vn 0.4707 0.0160 -0.8822
vn -0.0000 0.2089 -0.9779
vn -0.8153 0.1812 0.5500
vn -0.4707 -0.0160 0.8822
vn 0.4707 -0.3459 0.8117
vn 0.8153 -0.1812 -0.5500
vn -0.9414 0.3299 0.0705
vn -0.0000 -0.2089 0.9779
vn 0.3374 0.9206 0.1967
vt 0.978981 0.704813
vt 0.978981 0.764445
vt 0.974377 0.764445
vt 0.974377 0.704813
vt 0.969773 0.764445
vt 0.969773 0.704813
vt 0.965169 0.764445
vt 0.965169 0.704813
vt 0.960565 0.764445
vt 0.960565 0.704813
vt 0.955962 0.764445
vt 0.955962 0.704813
vt 0.951358 0.764445
vt 0.951358 0.704813
vt 0.946754 0.764445
vt 0.946754 0.704813
vt 0.942150 0.764445
vt 0.942150 0.704813
vt 0.937546 0.764445
vt 0.937546 0.704813
vt 0.932942 0.764445
vt 0.932942 0.704813
vt 0.928338 0.764445
vt 0.932942 0.767631
vt 0.928338 0.767631
vt 0.928338 0.704813
vt 0.923734 0.764445
vt 0.923734 0.704813
vt 0.960565 0.767631
vt 0.965169 0.767631
vt 0.965169 0.798934
vt 0.960565 0.798935
vt 0.974377 0.767631
vt 0.969773 0.767631
vt 0.937546 0.767631
vt 0.942150 0.767631
vt 0.946754 0.767631
vt 0.951358 0.767631
vt 0.955962 0.767631
vt 0.923734 0.767631
vt 0.978981 0.767631
vt 0.946754 0.798935
vt 0.951358 0.798934
vt 0.951358 0.801044
vt 0.946754 0.801044
vt 0.932942 0.798935
vt 0.928338 0.798934
vt 0.978981 0.798935
vt 0.974377 0.798934
vt 0.942150 0.798934
vt 0.955962 0.798934
vt 0.923734 0.798935
vt 0.969773 0.798934
vt 0.937546 0.798934
vt 0.951358 0.849141
vt 0.946754 0.849141
vt 0.965169 0.801044
vt 0.960565 0.801044
vt 0.932942 0.801044
vt 0.928338 0.801044
vt 0.978981 0.801044
vt 0.974377 0.801044
vt 0.942150 0.801044
vt 0.955962 0.801044
vt 0.923734 0.801044
vt 0.969773 0.801044
vt 0.937546 0.801044
vt 0.932942 0.849141
vt 0.937546 0.849141
vt 0.937546 0.851528
vt 0.932942 0.851528
vt 0.965169 0.849141
vt 0.960565 0.849141
vt 0.928338 0.849141
vt 0.978981 0.849141
vt 0.974377 0.849141
vt 0.942150 0.849141
vt 0.955962 0.849141
vt 0.923734 0.849141
vt 0.969773 0.849141
vt 0.965169 0.851528
vt 0.969773 0.851528
vt 0.969773 0.972451
vt 0.965169 0.972451
vt 0.951358 0.851528
vt 0.946754 0.851528
vt 0.960565 0.851528
vt 0.928338 0.851528
vt 0.978981 0.851528
vt 0.974377 0.851528
vt 0.942150 0.851528
vt 0.955962 0.851528
vt 0.923734 0.851528
vt 0.937546 0.972451
vt 0.932942 0.972451
vt 0.951358 0.972451
vt 0.946754 0.972451
vt 0.960565 0.972451
vt 0.928338 0.972451
vt 0.978981 0.972451
vt 0.974377 0.972451
vt 0.942150 0.972451
vt 0.955962 0.972451
vt 0.923734 0.972451
s 1
usemtl Material
f 685/799/503 686/800/503 688/801/504 687/802/504
f 687/802/504 688/801/504 690/803/505 689/804/505
f 689/804/505 690/803/505 692/805/506 691/806/506
f 691/806/506 692/805/506 694/807/507 693/808/507
f 693/808/507 694/807/507 696/809/508 695/810/508
f 695/810/508 696/809/508 698/811/509 697/812/509
f 697/812/509 698/811/509 700/813/510 699/814/510
f 699/814/510 700/813/510 702/815/511 701/816/511
f 701/816/511 702/815/511 704/817/512 703/818/512
f 703/818/512 704/817/512 706/819/513 705/820/513
s 0
f 708/821/514 706/819/514 719/822/514 720/823/514
s 1
f 705/820/513 706/819/513 708/821/515 707/824/515
f 707/824/515 708/821/515 686/825/503 685/826/503
f 713/827/516 712/828/517 724/829/517 725/830/516
s 0
f 690/803/514 688/801/514 710/831/514 711/832/514
f 706/819/514 704/817/514 718/833/514 719/822/514
f 704/817/514 702/815/514 717/834/514 718/833/514
f 702/815/514 700/813/514 716/835/514 717/834/514
f 700/813/514 698/811/514 715/836/514 716/835/514
f 698/811/514 696/809/514 714/837/514 715/836/514
f 696/809/514 694/807/514 713/827/514 714/837/514
f 694/807/514 692/805/514 712/828/514 713/827/514
f 686/825/514 708/821/514 720/823/514 709/838/514
f 688/801/514 686/800/514 709/839/514 710/831/514
f 692/805/514 690/803/514 711/832/514 712/828/514
f 728/840/514 727/841/514 739/842/514 740/843/514
s 1
f 720/823/518 719/822/519 731/844/519 732/845/518
f 710/831/520 709/839/521 721/846/521 722/847/520
f 717/834/522 716/835/523 728/840/523 729/848/522
f 714/837/524 713/827/516 725/830/516 726/849/524
f 709/838/521 720/823/518 732/845/518 721/850/521
f 711/832/525 710/831/520 722/847/520 723/851/525
f 718/833/526 717/834/522 729/848/522 730/852/526
f 715/836/527 714/837/524 726/849/524 727/841/527
f 712/828/517 711/832/525 723/851/525 724/829/517
f 719/822/519 718/833/526 730/852/526 731/844/519
f 716/835/523 715/836/527 727/841/527 728/840/523
f 740/843/523 739/842/527 751/853/527 752/854/523
s 0
f 725/830/514 724/829/514 736/855/514 737/856/514
f 732/845/514 731/844/514 743/857/514 744/858/514
f 722/847/514 721/846/514 733/859/514 734/860/514
f 729/848/514 728/840/514 740/843/514 741/861/514
f 726/849/514 725/830/514 737/856/514 738/862/514
f 721/850/514 732/845/514 744/858/514 733/863/514
f 723/851/514 722/847/514 734/860/514 735/864/514
f 730/852/514 729/848/514 741/861/514 742/865/514
f 727/841/514 726/849/514 738/862/514 739/842/514
f 724/829/514 723/851/514 735/864/514 736/855/514
f 731/844/514 730/852/514 742/865/514 743/857/514
f 755/866/514 754/867/514 766/868/514 767/869/514
s 1
f 737/856/516 736/855/517 748/870/517 749/871/516
f 744/858/518 743/857/519 755/866/519 756/872/518
f 734/860/520 733/859/521 745/873/521 746/874/520
f 741/861/522 740/843/523 752/854/523 753/875/522
f 738/862/524 737/856/516 749/871/516 750/876/524
f 733/863/521 744/858/518 756/872/518 745/877/521
f 735/864/525 734/860/520 746/874/520 747/878/525
f 742/865/526 741/861/522 753/875/522 754/867/526
f 739/842/527 738/862/524 750/876/524 751/853/527
f 736/855/517 735/864/525 747/878/525 748/870/517
f 743/857/519 742/865/526 754/867/526 755/866/519
f 760/879/517 759/880/525 771/881/525 772/882/517
s 0
f 752/854/514 751/853/514 763/883/514 764/884/514
f 749/871/514 748/870/514 760/879/514 761/885/514
f 756/872/528 755/866/528 767/869/528 768/886/528
f 746/874/514 745/873/514 757/887/514 758/888/514
f 753/875/514 752/854/514 764/884/514 765/889/514
f 750/876/514 749/871/514 761/885/514 762/890/514
f 745/877/514 756/872/514 768/886/514 757/891/514
f 747/878/514 746/874/514 758/888/514 759/880/514
f 754/867/514 753/875/514 765/889/514 766/868/514
f 751/853/514 750/876/514 762/890/514 763/883/514
f 748/870/514 747/878/514 759/880/514 760/879/514
s 1
f 767/869/519 766/868/526 778/892/526 779/893/519
f 764/884/523 763/883/527 775/894/527 776/895/523
f 761/885/516 760/879/517 772/882/517 773/896/516
f 768/886/518 767/869/519 779/893/519 780/897/518
f 758/888/520 757/887/521 769/898/521 770/899/520
f 765/889/522 764/884/523 776/895/523 777/900/522
f 762/890/524 761/885/516 773/896/516 774/901/524
f 757/891/521 768/886/518 780/897/518 769/902/521
f 759/880/525 758/888/520 770/899/520 771/881/525
f 766/868/526 765/889/522 777/900/522 778/892/526
f 763/883/527 762/890/524 774/901/524 775/894/527
o Icosphere
v 1.694047 2.604201 0.654547
v 1.730256 2.625756 0.686052
v 1.680217 2.622359 0.701952
v 1.649291 2.631252 0.660325
v 1.680217 2.640144 0.618698
v 1.730256 2.636748 0.634599
v 1.707878 2.666129 0.711303
v 1.657838 2.669525 0.695402
v 1.657838 2.680517 0.643949
v 1.707878 2.683914 0.628049
v 1.738804 2.675021 0.669676
v 1.694047 2.702072 0.675455
v 1.685918 2.606282 0.680575
v 1.715330 2.608279 0.671229
v 1.707201 2.618952 0.699094
v 1.736614 2.627409 0.659505
v 1.715330 2.614740 0.640986
v 1.667740 2.611510 0.656108
v 1.659611 2.622182 0.683972
v 1.685918 2.616736 0.631640
v 1.659611 2.632636 0.635037
v 1.707201 2.635867 0.619915
v 1.741638 2.649906 0.680122
v 1.741638 2.656367 0.649879
v 1.694047 2.642683 0.713936
v 1.723460 2.644679 0.704590
v 1.646457 2.649906 0.680122
v 1.664635 2.644679 0.704590
v 1.664635 2.661594 0.625411
v 1.646457 2.656367 0.649879
v 1.723460 2.661594 0.625411
v 1.694047 2.663590 0.616065
v 1.728484 2.673637 0.694964
v 1.680894 2.670406 0.710086
v 1.651481 2.678864 0.670497
v 1.680894 2.687321 0.630907
v 1.728484 2.684091 0.646029
v 1.702177 2.689537 0.698361
v 1.720355 2.694763 0.673893
v 1.672765 2.691533 0.689015
v 1.672765 2.697994 0.658772
v 1.702177 2.699991 0.649426
vn -0.0000 -0.9779 -0.2089
vn 0.7236 -0.5472 0.4207
vn -0.2764 -0.6151 0.7384
vn -0.8944 -0.4373 -0.0934
vn -0.2764 -0.2596 -0.9253
vn 0.7236 -0.3275 -0.6076
vn 0.2764 0.2596 0.9253
vn -0.7236 0.3275 0.6076
vn -0.7236 0.5472 -0.4207
vn 0.2764 0.6151 -0.7384
vn 0.8944 0.4373 0.0934
vn -0.0000 0.9779 0.2089
vn -0.1625 -0.9363 0.3113
vn 0.4253 -0.8964 0.1245
vn 0.2629 -0.6831 0.6813
vn 0.8506 -0.5141 -0.1098
vn 0.4253 -0.7673 -0.4799
vn -0.5257 -0.8319 -0.1777
vn -0.6882 -0.6186 0.3791
vn -0.1625 -0.7274 -0.6667
vn -0.6882 -0.4097 -0.5988
vn 0.2629 -0.3451 -0.9010
vn 0.9511 -0.0646 0.3022
vn 0.9511 0.0646 -0.3022
vn -0.0000 -0.2089 0.9779
vn 0.5878 -0.1690 0.7912
vn -0.9511 -0.0646 0.3022
vn -0.5878 -0.1690 0.7912
vn -0.5878 0.1690 -0.7912
vn -0.9511 0.0646 -0.3022
vn 0.5878 0.1690 -0.7912
vn -0.0000 0.2089 -0.9779
vn 0.6882 0.4097 0.5988
vn -0.2629 0.3451 0.9010
vn -0.8506 0.5141 0.1098
vn -0.2629 0.6831 -0.6813
vn 0.6882 0.6186 -0.3791
vn 0.1625 0.7274 0.6667
vn 0.5257 0.8319 0.1777
vn -0.4253 0.7673 0.4799
vn -0.4253 0.8964 -0.1245
vn 0.1625 0.9363 -0.3112
vt 0.980158 0.653639
vt 0.969617 0.657064
vt 0.971594 0.645019
vt 0.960750 0.659945
vt 0.966230 0.667488
vt 0.988098 0.640061
vt 0.994562 0.659956
vt 0.978296 0.665646
vt 0.955269 0.667488
vt 0.960749 0.639538
vt 0.960750 0.650621
vt 0.949905 0.645019
vt 0.972744 0.612138
vt 0.971187 0.627790
vt 0.960749 0.614079
vt 0.980157 0.589323
vt 0.978296 0.601330
vt 0.969617 0.592748
vt 0.972744 0.676454
vt 0.988111 0.679810
vt 0.971187 0.692106
vt 0.951882 0.657064
vt 0.950290 0.627790
vt 0.966229 0.603172
vt 0.971594 0.580703
vt 0.960749 0.678395
vt 0.941341 0.653639
vt 0.943202 0.665646
vt 0.926936 0.659956
vt 0.948754 0.612138
vt 0.933387 0.615494
vt 0.943202 0.601330
vt 0.960749 0.595629
vt 0.955269 0.603172
vt 0.951881 0.592748
vt 0.960749 0.575222
vt 0.960749 0.586305
vt 0.949905 0.580703
vt 0.948754 0.676454
vt 0.950311 0.692106
vt 0.933388 0.679811
vt 0.933401 0.575745
vt 0.941341 0.589323
vt 0.950290 0.563474
vt 0.926936 0.595640
vt 0.933400 0.640061
vt 0.971209 0.563474
vt 0.950311 0.627790
vt 0.988098 0.575745
vt 0.971209 0.627790
vt 0.994562 0.595640
vt 0.988111 0.615495
s 1
f 781/903/529 794/904/542 793/905/541
f 782/906/530 794/904/542 796/907/544
f 781/903/529 793/905/541 798/908/546
f 781/903/529 798/908/546 800/909/548
f 781/903/529 800/909/548 797/910/545
f 782/906/530 796/907/544 803/911/551
f 783/912/531 795/913/543 805/914/553
f 784/915/532 799/916/547 807/917/555
f 785/918/533 801/919/549 809/920/557
f 786/921/534 802/922/550 811/923/559
f 782/906/530 803/911/551 806/924/554
f 783/912/531 805/914/553 808/925/556
f 784/915/532 807/917/555 810/926/558
f 785/918/533 809/920/557 812/927/560
f 786/921/534 811/923/559 804/928/552
f 787/929/535 813/930/561 818/931/566
f 788/932/536 814/933/562 820/934/568
f 789/935/537 815/936/563 821/937/569
f 790/938/538 816/939/564 822/940/570
f 791/941/539 817/942/565 819/943/567
f 819/944/567 822/940/570 792/945/540
f 819/944/567 817/946/565 822/940/570
f 817/946/565 790/938/538 822/940/570
f 822/940/570 821/937/569 792/945/540
f 822/940/570 816/939/564 821/937/569
f 816/939/564 789/935/537 821/937/569
f 821/937/569 820/934/568 792/945/540
f 821/937/569 815/936/563 820/934/568
f 815/936/563 788/932/536 820/934/568
f 820/934/568 818/947/566 792/945/540
f 820/934/568 814/933/562 818/947/566
f 814/948/562 787/929/535 818/931/566
f 818/947/566 819/944/567 792/945/540
f 818/931/566 813/930/561 819/943/567
f 813/930/561 791/941/539 819/943/567
f 804/928/552 817/942/565 791/941/539
f 804/928/552 811/923/559 817/942/565
f 811/949/559 790/938/538 817/946/565
f 812/927/560 816/939/564 790/938/538
f 812/927/560 809/920/557 816/939/564
f 809/920/557 789/935/537 816/939/564
f 810/926/558 815/936/563 789/935/537
f 810/926/558 807/917/555 815/936/563
f 807/917/555 788/932/536 815/936/563
f 808/950/556 814/933/562 788/932/536
f 808/925/556 805/914/553 814/948/562
f 805/914/553 787/929/535 814/948/562
f 806/924/554 813/930/561 787/929/535
f 806/924/554 803/911/551 813/930/561
f 803/911/551 791/941/539 813/930/561
f 811/949/559 812/927/560 790/938/538
f 811/949/559 802/951/550 812/927/560
f 802/951/550 785/918/533 812/927/560
f 809/920/557 810/926/558 789/935/537
f 809/920/557 801/919/549 810/926/558
f 801/919/549 784/915/532 810/926/558
f 807/917/555 808/950/556 788/932/536
f 807/917/555 799/916/547 808/950/556
f 799/952/547 783/912/531 808/925/556
f 805/914/553 806/924/554 787/929/535
f 805/914/553 795/913/543 806/924/554
f 795/913/543 782/906/530 806/924/554
f 803/911/551 804/928/552 791/941/539
f 803/911/551 796/907/544 804/928/552
f 796/907/544 786/921/534 804/928/552
f 797/910/545 802/922/550 786/921/534
f 797/910/545 800/909/548 802/922/550
f 800/953/548 785/918/533 802/951/550
f 800/953/548 801/919/549 785/918/533
f 800/953/548 798/954/546 801/919/549
f 798/954/546 784/915/532 801/919/549
f 798/954/546 799/916/547 784/915/532
f 798/908/546 793/905/541 799/952/547
f 793/905/541 783/912/531 799/952/547
f 796/907/544 797/910/545 786/921/534
f 796/907/544 794/904/542 797/910/545
f 794/904/542 781/903/529 797/910/545
f 793/905/541 795/913/543 783/912/531
f 793/905/541 794/904/542 795/913/543
f 794/904/542 782/906/530 795/913/543
